<svg width="80" height="80" viewBox="0 0 80 80" fill="none" xmlns="http://www.w3.org/2000/svg">
<path d="M40 35C36.7036 35 33.4813 34.0225 30.7405 32.1912C27.9997 30.3598 25.8635 27.7568 24.602 24.7114C23.3405 21.666 23.0105 18.3148 23.6536 15.0818C24.2967 11.8488 25.884 8.87909 28.2149 6.54822C30.5458 4.21734 33.5155 2.63 36.7485 1.98691C39.9815 1.34382 43.3326 1.67388 46.3781 2.93534C49.4235 4.1968 52.0265 6.33301 53.8578 9.07383C55.6892 11.8146 56.6667 15.037 56.6667 18.3333C56.6667 22.7536 54.9107 26.9928 51.7851 30.1184C48.6595 33.244 44.4203 35 40 35Z" fill="#008000"/>
<path d="M70 78.3333H10C9.11595 78.3333 8.2681 77.9821 7.64298 77.357C7.01786 76.7319 6.66667 75.884 6.66667 75V65C6.66667 57.9276 9.47619 51.1448 14.4772 46.1438C19.4781 41.1428 26.2609 38.3333 33.3333 38.3333H46.6667C53.7391 38.3333 60.5219 41.1428 65.5229 46.1438C70.5238 51.1448 73.3333 57.9276 73.3333 65V75C73.3333 75.884 72.9821 76.7319 72.357 77.357C71.7319 77.9821 70.8841 78.3333 70 78.3333Z" fill="#008000"/>
</svg>
