<svg width="281" height="380" viewBox="0 0 281 380" fill="none" xmlns="http://www.w3.org/2000/svg">
<path d="M266.673 380C268.183 341.393 258.473 313.845 258.473 313.845L220.136 314.979V380H266.673Z" fill="#F6B897"/>
<path opacity="0.6" d="M221.515 380C222.808 378.159 224.342 376.459 225.831 374.88C229.441 371.052 233.888 368.118 238.595 365.814C243.398 363.464 248.494 361.727 253.675 360.426C257.848 359.378 262.105 358.587 266.392 358.164C264.667 331.419 258.474 313.845 258.474 313.845L220.137 314.979V380H221.515Z" fill="#F19973"/>
<path d="M202.944 249.888C202.944 249.888 230.405 249.779 250.032 266.033C269.659 282.287 266.592 334.421 280.699 343.315C280.699 343.315 252.521 362.536 217.54 364.897C217.54 364.897 201.224 344.873 202.944 249.888Z" fill="#FDAA2D"/>
<path opacity="0.3" d="M229.585 354.288C229.28 347.674 228.324 341.089 226.365 334.754C224.728 329.461 222.612 324.314 220.01 319.422C217.401 314.517 214.3 309.864 210.689 305.639C208.574 303.165 206.28 300.845 203.825 298.71C207.148 352.142 217.539 364.897 217.539 364.897C221.693 364.617 225.749 364.096 229.676 363.401C229.734 360.363 229.726 357.324 229.585 354.288Z" fill="#F18606"/>
<path d="M60.939 380V314.98L22.602 313.846C22.602 313.846 12.893 341.394 14.402 380.001H60.939V380Z" fill="#F6B897"/>
<path opacity="0.6" d="M42.4808 365.814C47.1888 368.118 51.6348 371.052 55.2448 374.88C56.7338 376.459 58.2678 378.158 59.5608 380H60.9388V314.98L22.6018 313.846C22.6018 313.846 16.4088 331.42 14.6838 358.165C18.9708 358.588 23.2278 359.379 27.4008 360.427C32.5818 361.727 37.6778 363.464 42.4808 365.814Z" fill="#F19973"/>
<path d="M78.132 249.888C78.132 249.888 50.671 249.779 31.044 266.033C11.417 282.287 14.484 334.421 0.376953 343.315C0.376953 343.315 28.555 362.536 63.536 364.897C63.536 364.897 79.852 344.873 78.132 249.888Z" fill="#FDAA2D"/>
<path opacity="0.3" d="M51.4899 354.288C51.7959 347.674 52.7509 341.089 54.7099 334.754C56.3469 329.461 58.4629 324.314 61.0649 319.422C63.6739 314.517 66.7749 309.864 70.3859 305.639C72.5009 303.165 74.7949 300.845 77.2499 298.71C73.9269 352.142 63.5359 364.897 63.5359 364.897C59.3819 364.617 55.3249 364.096 51.3989 363.401C51.3409 360.363 51.3499 357.324 51.4899 354.288Z" fill="#F18606"/>
<path d="M220.083 380C232.468 360.638 202.944 249.888 202.944 249.888H77.644C77.644 249.888 48.12 360.638 60.505 380H220.083Z" fill="#FDAA2D"/>
<g opacity="0.3">
<path d="M219.5 338.228C217.203 342.548 214.225 346.509 210.827 350.022C203.918 357.165 195.047 362.03 185.86 365.628C176.493 369.297 166.594 371.418 156.606 372.474C146.391 373.554 136.092 373.547 125.84 373.104C116.207 372.688 106.506 372.12 97.1099 369.807C88.0319 367.572 79.5249 363.632 71.9029 358.22C65.7919 353.881 61.4269 347.84 59.0429 340.815C56.8599 358.731 56.6029 373.899 60.5039 379.998H220.082C224.366 373.3 223.635 355.665 220.846 335.463C220.426 336.401 219.981 337.324 219.5 338.228Z" fill="#F18606"/>
</g>
<path d="M166.839 191.921C166.839 191.921 156.902 252.538 202.944 249.888C202.944 249.888 196.65 302.224 143.983 302.224H136.377C83.71 302.224 77.416 249.888 77.416 249.888C123.458 252.538 113.521 191.921 113.521 191.921H166.839Z" fill="#F6B897"/>
<path opacity="0.6" d="M166.839 191.921H113.522C113.522 191.921 115.309 202.833 113.852 215.195C124.369 222.7 135.015 227.78 139.581 227.78H139.616C144.338 227.78 155.562 222.348 166.422 214.418C165.127 202.38 166.839 191.921 166.839 191.921Z" fill="#F19973"/>
<path d="M92.345 174.884C92.345 174.884 69.323 174.353 76.23 206.761C76.23 206.761 72.157 200.917 72.511 192.417C72.511 192.417 68.438 212.25 83.668 222.7C83.668 222.7 58.344 233.679 78.709 258.472C78.709 258.472 77.115 260.243 78.001 262.722C78.001 262.722 67.907 262.9 67.198 276.536C66.49 290.172 73.573 292.474 73.573 292.474C73.573 292.474 71.625 293.713 71.448 295.484C71.448 295.484 61 296.369 61.354 308.235C61.708 320.1 70.032 320.454 70.032 320.454C70.032 320.454 68.615 321.871 68.792 323.287C68.792 323.287 59.003 324.789 60.708 332.631C62.413 340.472 70.51 340.729 70.51 340.729C70.51 340.729 55.679 352.577 62.839 362.208C62.839 362.208 61.646 357.093 64.203 353.343C64.203 353.343 61.816 370.134 68.806 375.248C68.806 375.248 65.482 366.81 66.249 361.951C66.249 361.951 68.806 377.465 71.96 379.51C71.96 379.51 79.375 373.202 79.716 362.548C79.716 362.548 80.654 370.133 76.733 375.503C76.733 375.503 85.683 371.583 85.853 359.139C86.023 346.695 79.631 340.217 79.631 340.217C79.631 340.217 89.944 336.636 94.547 327.346C99.15 318.056 93.183 308.083 89.177 307.316C89.177 307.316 104.093 303.225 100.428 287.286C100.428 287.286 103.241 292.742 100.769 298.879C100.769 298.879 104.945 295.299 103.667 286.435C102.388 277.571 95.655 276.122 95.655 276.122C95.655 276.122 104.093 276.036 109.974 264.614C115.855 253.193 104.349 242.795 104.349 242.795C104.349 242.795 112.702 236.829 115.259 227.112C117.816 217.395 113.213 208.275 110.742 206.571C110.742 206.571 126.084 198.389 113.299 180.66C100.512 162.93 92.345 174.884 92.345 174.884Z" fill="#593A34"/>
<path opacity="0.5" d="M110.74 206.569C110.74 206.569 126.082 198.387 113.297 180.658C100.512 162.929 92.3451 174.883 92.3451 174.883C92.3451 174.883 83.4381 174.68 78.3661 182.325C79.6751 182.588 80.9721 182.912 82.2471 183.305C85.6531 184.355 88.9241 185.886 91.8471 187.932C94.7571 189.969 97.3031 192.504 99.3021 195.443C101.38 198.498 102.887 201.993 103.682 205.602C104.379 208.771 104.549 212.112 104.201 215.337C103.878 218.342 103.088 221.658 100.911 223.892C98.7221 226.138 95.6471 226.285 92.8031 225.476C94.6901 228.252 96.5251 231.089 97.8871 234.164C99.1151 236.936 99.9171 239.884 100.02 242.925C100.117 245.799 99.6761 248.84 98.5831 251.512C97.1521 255.011 94.1741 258.727 90.3801 259.074C91.5701 259.46 92.7551 259.86 93.9031 260.376C95.3901 261.044 97.5901 262.091 97.7231 263.962C97.8341 265.525 96.7971 266.538 95.3531 266.902C93.6381 267.334 91.7721 267.125 90.0471 266.873C88.7881 266.689 87.5511 266.406 86.3051 266.163C87.4961 269.574 88.5421 273.015 88.7951 276.642C89.1101 281.149 88.7361 286.574 85.1101 289.779C82.9481 291.69 79.9581 292.454 77.1271 292.495C75.6731 292.516 74.2311 292.357 72.8021 292.101C73.2701 292.373 73.5721 292.473 73.5721 292.473C73.5721 292.473 73.4611 292.544 73.2931 292.673C74.0251 292.915 74.7511 293.172 75.4951 293.378C77.0881 293.819 78.7031 294.179 80.3021 294.593C81.2441 294.837 82.5561 295.213 82.8951 296.257C83.2251 297.274 82.5151 298.116 81.6141 298.453C80.5631 298.845 79.3481 298.823 78.2451 298.766C77.3661 298.72 76.4961 298.609 75.6241 298.499C75.7281 299.585 76.7141 300.419 77.5281 301.048C78.5041 301.802 79.5771 302.429 80.4741 303.283C82.5351 305.243 84.2381 307.696 84.5891 310.582C84.8471 312.702 84.4111 315.135 82.7321 316.598C81.3041 317.843 79.3511 318.227 77.5141 318.355C75.7501 318.478 73.9851 318.36 72.2211 318.283C73.7841 319.666 75.8461 320.245 77.9001 320.524C79.9741 320.806 82.0741 320.811 84.1521 321.06C85.1931 321.185 86.2401 321.348 87.1971 321.798C87.7341 322.051 88.3981 322.52 88.2321 323.206C88.0761 323.849 87.3521 324.267 86.8121 324.548C85.9941 324.974 85.1081 325.27 84.2191 325.505C81.8131 326.141 79.3621 326.505 76.8951 326.172C78.1491 327.711 79.2421 329.826 78.0791 331.677C76.9541 333.467 74.5251 334.006 72.5731 334.186C70.3191 334.393 67.9321 334.21 65.7591 333.568C63.7161 332.965 61.7371 331.769 61.1961 329.566C61.0951 329.155 61.0461 328.725 61.0441 328.291C60.5211 329.461 60.3301 330.889 60.7091 332.632C62.0961 339.014 67.7171 340.371 69.7621 340.655C70.8091 340.346 71.9101 340.181 72.9941 340.241C74.3201 340.315 75.6861 340.492 76.7551 341.347C77.7631 342.154 78.4441 343.415 78.9401 344.586C79.5071 345.925 79.8681 347.346 80.0661 348.785C80.4351 351.476 80.3351 354.624 78.7431 356.941C78.6391 357.092 78.4581 357.114 78.3191 356.996C77.8821 356.626 77.6191 356.113 77.2991 355.646C77.0941 357.434 76.9641 359.23 76.8171 361.024C76.6711 362.808 76.4991 364.593 76.2061 366.36C75.9341 367.999 75.5621 369.624 75.1461 371.232C74.4761 373.818 73.6521 376.367 72.6571 378.848C74.5111 376.971 79.4391 371.19 79.7151 362.551C79.7151 362.551 80.6531 370.137 76.7321 375.507C76.7321 375.507 85.6821 371.586 85.8521 359.142C86.0221 346.698 79.6301 340.22 79.6301 340.22C79.6301 340.22 89.9431 336.64 94.5461 327.35C99.1491 318.06 93.1821 308.087 89.1761 307.32C89.1761 307.32 104.092 303.229 100.427 287.29C100.427 287.29 103.24 292.745 100.768 298.882C100.768 298.882 104.944 295.302 103.666 286.438C102.387 277.574 95.6541 276.125 95.6541 276.125C95.6541 276.125 104.092 276.04 109.973 264.618C115.854 253.197 104.348 242.798 104.348 242.798C104.348 242.798 112.701 236.832 115.258 227.115C117.814 217.394 113.212 208.274 110.74 206.569Z" fill="#3C231F"/>
<path d="M218.059 87.3892C218.059 87.3892 227.974 107.751 220.348 122.284C212.722 136.818 219.916 189.031 155.171 181.838V48.8672L218.059 87.3892Z" fill="#593A34"/>
<path opacity="0.5" d="M218.059 87.3892C218.059 87.3892 227.974 107.751 220.348 122.284C212.722 136.818 219.916 189.031 155.171 181.838V48.8672L218.059 87.3892Z" fill="#3C231F"/>
<path d="M62.7968 87.3892C62.7968 87.3892 52.8818 107.751 60.5078 122.284C68.1338 136.818 60.9398 189.031 125.685 181.838V48.8672L62.7968 87.3892Z" fill="#3C231F"/>
<path opacity="0.5" d="M62.7968 87.3892C62.7968 87.3892 52.8818 107.751 60.5078 122.284C68.1338 136.818 60.9398 189.031 125.685 181.838V48.8672L62.7968 87.3892Z" fill="#593A34"/>
<path d="M206.732 69.401C206.732 69.401 198.836 156.27 188.12 174.273C177.404 192.276 148.076 209.707 139.616 209.707H139.581C131.121 209.707 101.793 192.276 91.0768 174.273C82.2848 159.503 75.3908 98.377 73.1988 76.902C71.9888 65.048 74.7448 53.061 81.3198 43.18C90.0458 30.069 107.367 16.959 141.751 16.959C210.519 16.958 206.732 69.401 206.732 69.401Z" fill="#F6B897"/>
<path opacity="0.3" d="M107.497 187C124.342 187 137.997 173.121 137.997 156C137.997 138.879 124.342 125 107.497 125C90.6526 125 76.9973 138.879 76.9973 156C76.9973 173.121 90.6526 187 107.497 187Z" fill="url(#paint0_radial_72_546)"/>
<path opacity="0.3" d="M170.997 187C188.118 187 201.997 173.121 201.997 156C201.997 138.879 188.118 125 170.997 125C153.876 125 139.997 138.879 139.997 156C139.997 173.121 153.876 187 170.997 187Z" fill="url(#paint1_radial_72_546)"/>
<path d="M93.8908 133.638L92.7128 130.887C92.7128 130.887 92.3988 126.07 95.0628 121.913C97.7278 117.756 103.057 114.665 110.092 116.424C117.127 118.183 122.089 124.399 120.967 131.71C119.845 139.021 118.549 139.598 118.549 139.598C118.549 139.598 109.879 143.178 101.938 139.874C93.9968 136.57 93.8908 133.638 93.8908 133.638Z" fill="white"/>
<path d="M92.7128 130.888C92.7128 130.888 98.6178 144.249 118.549 139.598C118.549 139.598 110.271 144.028 100.538 140.188C92.4918 137.014 92.7128 130.888 92.7128 130.888Z" fill="#844E3D"/>
<path d="M93.8617 119.046C96.7117 111.529 110.985 110.574 117.985 116.362C118.317 116.648 118.7 116.965 118.994 117.272C119.405 117.696 119.801 118.134 120.049 118.63C120.067 118.666 120.043 118.705 119.995 118.716C119.947 118.727 119.895 118.708 119.876 118.673C119.387 117.871 118.566 117.172 117.746 116.53C116.639 115.726 115.403 115.01 114.054 114.457C111.205 113.272 107.914 112.835 104.781 113.099C102.653 113.292 100.544 113.743 98.7837 114.613C96.5947 115.648 94.8757 117.242 94.0427 119.084C94.0317 119.122 93.9747 119.145 93.9237 119.13C93.8767 119.118 93.8497 119.08 93.8617 119.046Z" fill="#844E3D"/>
<path d="M109.916 138.05C115.553 138.05 120.123 133.48 120.123 127.843C120.123 122.206 115.553 117.636 109.916 117.636C104.279 117.636 99.7087 122.206 99.7087 127.843C99.7087 133.48 104.279 138.05 109.916 138.05Z" fill="#A97C50"/>
<path d="M102.528 127.843C102.528 131.924 105.836 135.231 109.916 135.231C113.997 135.231 117.305 131.923 117.305 127.843C117.305 123.762 113.997 120.455 109.916 120.455C105.836 120.455 102.528 123.763 102.528 127.843Z" fill="#241F20"/>
<path d="M112.126 125.76C112.126 127.456 113.501 128.83 115.197 128.83C116.893 128.83 118.268 127.455 118.268 125.76C118.268 124.065 116.893 122.689 115.197 122.689C113.501 122.689 112.126 124.064 112.126 125.76Z" fill="white"/>
<path d="M120.967 131.709C120.967 131.709 124.352 118.52 109.929 115.152C95.3168 111.741 93.0568 125.401 92.8208 128.318C92.8208 128.318 94.3978 119.015 103.464 116.965C112.531 114.916 120.967 121.144 120.967 131.709Z" fill="#231F20"/>
<path d="M86.8618 107.469C86.8618 107.469 94.5338 103.164 104.339 104.135C117.615 105.45 120.044 110.138 124.894 109.248C129.743 108.358 102.507 89.8183 86.8618 107.469Z" fill="#593A34"/>
<path d="M185.801 133.638L186.979 130.887C186.979 130.887 187.293 126.07 184.629 121.913C181.964 117.756 176.635 114.665 169.6 116.424C162.565 118.183 157.604 124.399 158.725 131.71C159.847 139.021 161.143 139.598 161.143 139.598C161.143 139.598 169.813 143.178 177.754 139.874C185.694 136.569 185.801 133.638 185.801 133.638Z" fill="white"/>
<path d="M186.979 130.888C186.979 130.888 181.074 144.249 161.143 139.598C161.143 139.598 169.421 144.028 179.154 140.188C187.2 137.014 186.979 130.888 186.979 130.888Z" fill="#844E3D"/>
<path d="M185.829 119.046C182.979 111.529 168.705 110.574 161.706 116.362C161.374 116.648 160.991 116.965 160.697 117.272C160.286 117.696 159.89 118.134 159.642 118.63C159.624 118.666 159.648 118.705 159.696 118.716C159.744 118.727 159.796 118.708 159.815 118.673C160.304 117.871 161.125 117.172 161.944 116.53C163.052 115.726 164.287 115.01 165.636 114.457C168.485 113.272 171.776 112.835 174.909 113.099C177.037 113.292 179.146 113.743 180.906 114.613C183.095 115.648 184.814 117.242 185.647 119.084C185.658 119.122 185.715 119.145 185.766 119.13C185.815 119.118 185.841 119.08 185.829 119.046Z" fill="#844E3D"/>
<path d="M169.775 138.05C175.412 138.05 179.982 133.48 179.982 127.843C179.982 122.206 175.412 117.636 169.775 117.636C164.138 117.636 159.568 122.206 159.568 127.843C159.568 133.48 164.138 138.05 169.775 138.05Z" fill="#A97C50"/>
<path d="M177.164 127.843C177.164 131.924 173.856 135.231 169.775 135.231C165.695 135.231 162.387 131.923 162.387 127.843C162.387 123.762 165.695 120.455 169.775 120.455C173.856 120.455 177.164 123.763 177.164 127.843Z" fill="#241F20"/>
<path d="M167.566 125.76C167.566 127.456 166.191 128.83 164.495 128.83C162.799 128.83 161.425 127.455 161.425 125.76C161.425 124.065 162.8 122.689 164.495 122.689C166.19 122.689 167.566 124.064 167.566 125.76Z" fill="white"/>
<path d="M158.725 131.709C158.725 131.709 155.34 118.52 169.763 115.152C184.375 111.741 186.635 125.401 186.871 128.318C186.871 128.318 185.294 119.015 176.227 116.965C167.161 114.916 158.725 121.144 158.725 131.709Z" fill="#231F20"/>
<path d="M192.83 107.469C192.83 107.469 185.158 103.164 175.353 104.135C162.077 105.45 159.648 110.138 154.798 109.248C149.949 108.358 177.184 89.8183 192.83 107.469Z" fill="#593A34"/>
<path opacity="0.5" d="M139.797 156.81C139.936 156.81 140.074 156.779 140.202 156.724C142.387 155.782 144.424 155.976 146.41 155.663C148.454 155.34 147.795 151.182 147.795 151.182H147.83C147.83 151.182 149.8 156.231 147.461 158.878C145.121 161.525 139.86 160.663 139.86 160.663H139.769C139.769 160.663 134.508 161.525 132.168 158.878C129.828 156.23 131.799 151.182 131.799 151.182C131.799 151.182 131.141 155.34 133.184 155.663C135.169 155.976 137.206 155.782 139.392 156.724C139.52 156.779 139.658 156.81 139.797 156.81Z" fill="#EE845A"/>
<path d="M137.08 159.271C137.033 159.277 136.837 159.072 136.799 159.044C136.535 158.84 136.259 158.651 135.976 158.475C134.881 157.797 133.55 157.243 132.237 157.44C132.308 157.429 132.678 157.821 132.74 157.868C133.058 158.111 133.387 158.339 133.738 158.532C134.743 159.085 135.929 159.421 137.08 159.271Z" fill="#754C29"/>
<path d="M142.549 159.271C142.596 159.277 142.793 159.072 142.83 159.044C143.094 158.84 143.37 158.651 143.653 158.475C144.748 157.797 146.079 157.243 147.392 157.44C147.321 157.429 146.951 157.821 146.889 157.868C146.572 158.111 146.242 158.339 145.891 158.532C144.887 159.085 143.7 159.421 142.549 159.271Z" fill="#754C29"/>
<path d="M147.83 151.182C150.684 158.216 147.122 162.02 139.838 160.799C138.683 160.938 137.045 161.098 135.705 160.882C130.397 160.043 130.102 155.399 131.799 151.183C130.879 154.113 130.51 158.446 133.92 159.836C135.742 160.551 137.803 160.772 139.747 160.53C141.736 160.745 143.826 160.534 145.679 159.77C149.055 158.382 148.684 154.108 147.83 151.182Z" fill="#F29E79"/>
<path d="M147.83 151.182C150.684 158.216 147.122 162.02 139.838 160.799C138.683 160.938 137.045 161.098 135.705 160.882C130.397 160.043 130.102 155.399 131.799 151.183C130.879 154.113 130.51 158.446 133.92 159.836C135.742 160.551 137.803 160.772 139.747 160.53C141.736 160.745 143.826 160.534 145.679 159.77C149.055 158.382 148.684 154.108 147.83 151.182Z" fill="#F29E79"/>
<path d="M139.286 188.946C127.954 188.946 122.195 175.212 122.195 175.212C123.642 176.61 125.511 177.61 127.574 177.344C129.665 177.075 131.589 175.775 133.316 174.649C136.554 172.538 139.791 175.916 139.791 175.916H139.895C139.895 175.916 143.133 172.538 146.37 174.649C148.097 175.775 150.021 177.075 152.112 177.344C154.175 177.61 156.044 176.61 157.491 175.212C157.491 175.212 151.732 188.946 140.4 188.946H139.286Z" fill="#E07B70"/>
<path opacity="0.7" d="M122.361 175.042C130.671 181.832 141.512 183.648 151.227 178.767C153.317 177.783 155.456 176.376 157.343 175.027C157.575 174.841 157.887 175.2 157.64 175.399C156.39 176.435 155.103 177.432 153.731 178.304C146.729 182.878 137.97 183.987 130.217 180.677C127.197 179.406 124.388 177.665 122.03 175.383C121.83 175.169 122.112 174.824 122.361 175.042Z" fill="#A25247"/>
<path d="M81.6188 140.529C80.0288 136.187 78.1838 131.915 75.0848 128.414C69.3998 121.991 58.9258 125.013 55.9368 132.598C53.5758 138.59 56.1208 145.493 59.0998 150.794C61.8418 155.673 65.4458 160.648 70.8508 162.86C75.3558 164.704 83.5888 165.334 85.3808 159.419C86.8628 154.526 84.2868 148.078 82.6748 143.493C82.3288 142.507 81.9808 141.516 81.6188 140.529Z" fill="#F6B897"/>
<path d="M74.5799 141.535C74.5799 141.535 70.6269 139.442 70.3949 144.248C70.1619 149.053 74.4249 151.766 74.4249 151.766C74.4249 151.766 62.6439 153.781 61.4819 141.458C60.3189 129.134 72.2549 130.219 74.5799 141.535Z" fill="#EE845A"/>
<path d="M198.072 140.529C199.662 136.187 201.507 131.915 204.606 128.414C210.291 121.991 220.764 125.013 223.754 132.598C226.115 138.59 223.57 145.493 220.591 150.794C217.849 155.673 214.246 160.648 208.84 162.86C204.335 164.704 196.102 165.334 194.31 159.419C192.828 154.526 195.404 148.078 197.016 143.493C197.362 142.507 197.711 141.516 198.072 140.529Z" fill="#F6B897"/>
<path d="M205.112 141.535C205.112 141.535 209.065 139.442 209.297 144.248C209.53 149.053 205.267 151.766 205.267 151.766C205.267 151.766 217.048 153.781 218.21 141.458C219.373 129.134 207.437 130.219 205.112 141.535Z" fill="#EE845A"/>
<path d="M81.9208 92.7829C81.9208 92.7829 86.4428 133.893 76.3708 145.199C66.2988 156.504 62.8048 173.36 72.4648 189.598C72.4648 189.598 58.2818 174.593 59.9258 157.121C61.5708 139.649 74.5198 134.921 75.7528 118.888C76.9858 102.855 73.9028 91.9609 73.9028 91.9609L81.9208 92.7829Z" fill="#593A34"/>
<path d="M198.323 92.7829C198.323 92.7829 193.801 133.893 203.873 145.199C213.945 156.504 217.439 173.36 207.779 189.598C207.779 189.598 221.962 174.593 220.318 157.121C218.674 139.649 205.724 134.921 204.491 118.888C203.258 102.855 206.341 91.9609 206.341 91.9609L198.323 92.7829Z" fill="#593A34"/>
<path d="M140.122 44.385C140.122 44.385 136.884 50.099 143.169 52.384C149.454 54.67 157.644 43.242 169.453 75.811C181.262 108.38 202.022 101.142 202.022 101.142C202.022 101.142 186.214 98.856 178.405 80.763C178.405 80.763 187.547 92.572 203.736 100C219.925 107.428 222.782 117.713 219.735 122.284C219.735 122.284 234.02 109.333 232.496 86.096C230.972 62.86 218.211 60.003 218.211 60.003C218.211 60.003 225.068 45.718 214.973 24.958C204.879 4.19798 168.881 -10.658 139.741 9.72098L140.122 44.385Z" fill="#593A34"/>
<path opacity="0.5" d="M147.362 50.6558C150.195 49.1278 152.93 47.4158 156.133 46.7848C162.69 45.4928 169.139 48.0168 174.375 51.8418C179.597 55.6568 183.96 60.5398 188.105 65.4658C190.179 67.9298 192.203 70.4348 194.271 72.9038C196.202 75.2088 198.163 77.4758 200.417 79.4748C204.691 83.2658 209.786 86.1128 215.386 87.3578C218.163 87.9748 221.145 88.3188 223.986 88.0378C226.025 87.8358 228.047 87.2188 229.709 85.9918C230.766 85.2118 231.596 84.2428 232.231 83.1618C232.339 84.1028 232.428 85.0788 232.495 86.0958C234.019 109.332 219.734 122.284 219.734 122.284C222.781 117.713 219.924 107.428 203.735 99.9998C187.546 92.5718 178.403 80.7628 178.403 80.7628C186.212 98.8568 202.02 101.142 202.02 101.142C202.02 101.142 181.26 108.38 169.451 75.8108C157.734 43.4938 149.58 54.4928 143.314 52.4318C144.701 51.9728 146.043 51.3668 147.362 50.6558Z" fill="#3C231F"/>
<path d="M140.122 44.385C140.122 44.385 143.36 50.099 137.075 52.384C130.79 54.67 122.6 43.242 110.791 75.811C98.9818 108.38 78.2218 101.142 78.2218 101.142C78.2218 101.142 94.0298 98.856 101.839 80.763C101.839 80.763 92.6968 92.572 76.5078 100C60.3188 107.428 57.4618 117.713 60.5088 122.284C60.5088 122.284 46.2238 109.333 47.7478 86.096C49.2718 62.86 62.0328 60.003 62.0328 60.003C62.0328 60.003 55.1758 45.718 65.2708 24.958C75.3658 4.19798 111.363 -10.658 140.504 9.72098L140.122 44.385Z" fill="#593A34"/>
<path opacity="0.5" d="M132.882 50.6558C130.049 49.1278 127.314 47.4158 124.111 46.7848C117.554 45.4928 111.105 48.0168 105.869 51.8418C100.647 55.6568 96.2838 60.5398 92.1388 65.4658C90.0648 67.9298 88.0408 70.4348 85.9728 72.9038C84.0418 75.2088 82.0808 77.4758 79.8268 79.4748C75.5528 83.2658 70.4578 86.1128 64.8578 87.3578C62.0808 87.9748 59.0988 88.3188 56.2578 88.0378C54.2188 87.8358 52.1968 87.2188 50.5348 85.9918C49.4778 85.2118 48.6478 84.2428 48.0128 83.1618C47.9048 84.1028 47.8158 85.0788 47.7488 86.0958C46.2248 109.332 60.5098 122.284 60.5098 122.284C57.4628 117.713 60.3188 107.428 76.5088 99.9998C92.6978 92.5718 101.841 80.7628 101.841 80.7628C94.0318 98.8568 78.2238 101.142 78.2238 101.142C78.2238 101.142 98.9838 108.38 110.793 75.8108C122.51 43.4938 130.664 54.4928 136.93 52.4318C135.542 51.9728 134.2 51.3668 132.882 50.6558Z" fill="#3C231F"/>
<defs>
<radialGradient id="paint0_radial_72_546" cx="0" cy="0" r="1" gradientUnits="userSpaceOnUse" gradientTransform="translate(107.498 156) scale(30.4996 30.9996)">
<stop offset="0.00017998" stop-color="#DF7469"/>
<stop offset="1" stop-color="white" stop-opacity="0"/>
</radialGradient>
<radialGradient id="paint1_radial_72_546" cx="0" cy="0" r="1" gradientUnits="userSpaceOnUse" gradientTransform="translate(170.997 156) scale(30.9996)">
<stop offset="0.00017998" stop-color="#DF7469"/>
<stop offset="1" stop-color="white" stop-opacity="0"/>
</radialGradient>
</defs>
</svg>
