<svg width="277" height="380" viewBox="0 0 277 380" fill="none" xmlns="http://www.w3.org/2000/svg">
<path d="M188.722 241.167C174.92 236.963 139.813 237.842 135.173 237.979C130.534 237.842 95.4268 236.963 81.6238 241.167C66.8308 245.673 76.8548 260.964 76.8548 260.964C90.9968 292.75 128.026 328.571 134.658 334.837V335.8C134.658 335.8 134.837 335.635 135.172 335.321C135.507 335.635 135.686 335.8 135.686 335.8V334.837C142.318 328.572 179.347 292.75 193.489 260.964C193.491 260.964 203.514 245.673 188.722 241.167Z" fill="#FDAA2D"/>
<path opacity="0.6" d="M188.722 241.167C174.92 236.963 139.813 237.842 135.173 237.979C130.534 237.842 95.4268 236.963 81.6238 241.167C66.8308 245.673 76.8548 260.964 76.8548 260.964C90.9968 292.75 128.026 328.571 134.658 334.837V335.8C134.658 335.8 134.837 335.635 135.172 335.321C135.507 335.635 135.686 335.8 135.686 335.8V334.837C142.318 328.572 179.347 292.75 193.489 260.964C193.491 260.964 203.514 245.673 188.722 241.167Z" fill="#FDAA2D"/>
<path d="M188.722 241.167C174.92 236.963 139.813 237.842 135.173 237.979C130.534 237.842 95.4268 236.963 81.6238 241.167C66.8308 245.673 76.8548 260.964 76.8548 260.964C90.9968 292.75 128.026 328.571 134.658 334.837V335.8C134.658 335.8 134.837 335.635 135.172 335.321C135.507 335.635 135.686 335.8 135.686 335.8V334.837C142.318 328.572 179.347 292.75 193.489 260.964C193.491 260.964 203.514 245.673 188.722 241.167Z" fill="#BA6512"/>
<path d="M103.217 209.824C103.217 209.824 114.287 264.01 83.9899 274.304C83.9899 274.304 74.9079 347.516 135.464 347.516H135.507C196.064 347.516 186.981 274.304 186.981 274.304C156.683 264.011 167.754 209.824 167.754 209.824H103.217Z" fill="#F6B687"/>
<path opacity="0.6" d="M103.217 209.824C103.217 209.824 104.574 216.477 105.037 225.56C111.586 229.784 118.635 233.237 125.886 236.074C129.441 237.465 132.979 239.127 136.889 238.656C140.519 238.219 143.846 236.423 147.176 235.039C153.413 232.447 159.91 229.282 165.941 225.401C166.411 216.399 167.753 209.824 167.753 209.824H103.217Z" fill="#F19762"/>
<path d="M175.635 266.667C175.186 267.09 174.734 267.509 174.263 267.907C173.186 268.819 171.974 269.589 170.776 270.331C163.373 274.915 154.785 277.506 146.186 278.599C141.798 279.157 137.353 279.312 132.939 279.012C128.497 278.71 124.099 277.884 119.789 276.781C114.962 275.545 110.195 273.886 105.8 271.516C103.718 270.393 101.868 268.982 100.072 267.451C99.0069 266.542 97.9569 265.609 96.8679 264.728C93.7639 269.004 89.5839 272.404 83.9899 274.305C83.9899 274.305 74.9079 347.517 135.464 347.517H135.507C196.064 347.517 186.981 274.305 186.981 274.305C182.261 272.7 178.545 270.031 175.635 266.667Z" fill="#9B8579"/>
<path d="M276.106 362.758C276.05 362.265 275.994 361.771 275.936 361.278C275.755 359.741 275.564 358.205 275.365 356.671C275.098 354.612 274.815 352.554 274.517 350.499C274.161 348.038 273.784 345.58 273.385 343.125C272.939 340.382 272.465 337.644 271.96 334.912C271.423 332.008 270.85 329.111 270.234 326.223C269.606 323.278 268.932 320.342 268.199 317.421C267.48 314.553 266.703 311.699 265.847 308.869C265.038 306.196 264.159 303.543 263.17 300.93C262.275 298.565 261.292 296.229 260.16 293.967C259.183 292.015 258.096 290.109 256.809 288.344C246.495 274.2 215.294 272.454 200.506 272.455C198.113 275.093 195.729 277.739 193.311 280.354C191.478 282.338 189.65 284.321 187.669 286.159C185.7 287.985 183.71 289.786 181.71 291.577C177.723 295.148 173.698 298.677 169.732 302.271C165.854 305.787 161.998 309.347 158.384 313.137C154.829 316.865 151.502 320.808 148.388 324.911C146.876 326.904 145.357 328.917 143.981 331.008C142.989 332.515 142.204 334.167 141.38 335.768C139.801 338.833 138.166 342.499 135.271 344.561C135.175 344.629 135.01 344.602 134.933 344.517C132.684 342.038 130.863 339.192 129.08 336.37C127.256 333.482 125.355 330.667 123.432 327.844C119.958 322.745 116.543 317.589 112.565 312.861C110.521 310.431 108.299 308.204 106.041 305.977C103.648 303.618 101.393 301.122 99.1929 298.583C95.0239 293.772 90.9779 288.856 87.0119 283.876C84.1019 280.222 81.2149 276.483 78.7899 272.474C65.5419 272.274 30.7499 273.248 19.7429 288.343C6.04992 307.128 0.263916 364.493 0.263916 364.493C0.263916 367.446 19.9779 370.062 21.8849 370.411C40.4409 373.805 59.2419 375.954 78.0339 377.499C127.998 381.607 178.469 380.707 228.218 374.422C239.961 372.939 251.717 371.217 263.289 368.703C263.655 368.623 264.026 368.563 264.395 368.496C266.848 368.05 269.303 367.582 271.707 366.917C272.834 366.606 273.983 366.267 275.029 365.734C275.371 365.56 275.733 365.36 275.999 365.077C276.568 364.473 276.188 363.484 276.106 362.758Z" fill="#FDAA2D"/>
<path opacity="0.6" d="M48.416 278.507C50.599 285.494 57.241 291.291 62.558 295.921C69.887 302.304 77.838 307.961 85.795 313.525C100.947 324.119 117.912 333.874 130.746 347.359C132.417 349.115 134.01 350.977 135.296 353.038C135.276 353.146 135.248 353.238 135.208 353.304C135.249 353.236 135.294 353.17 135.336 353.102C135.378 353.17 135.423 353.236 135.464 353.304C135.424 353.238 135.396 353.146 135.376 353.038C136.662 350.977 138.255 349.115 139.926 347.359C152.761 333.874 169.726 324.12 184.877 313.525C192.834 307.961 200.784 302.304 208.114 295.921C213.431 291.29 220.074 285.493 222.257 278.507C222.749 276.933 222.877 275.368 222.728 273.834C214.309 272.712 206.196 272.453 200.51 272.454C198.117 275.092 195.733 277.738 193.315 280.353C191.482 282.337 189.654 284.32 187.673 286.158C185.704 287.984 183.714 289.785 181.714 291.576C177.727 295.147 173.702 298.676 169.736 302.27C165.858 305.786 162.002 309.346 158.388 313.136C154.833 316.864 151.506 320.807 148.392 324.91C146.88 326.903 145.361 328.916 143.985 331.007C142.993 332.514 142.208 334.166 141.384 335.767C140.025 338.406 138.622 341.487 136.411 343.609C135.926 345.561 135.538 347.545 135.336 349.546C135.141 347.608 134.771 345.685 134.307 343.793C132.344 341.491 130.696 338.922 129.084 336.37C127.26 333.482 125.359 330.667 123.436 327.844C119.962 322.745 116.547 317.589 112.569 312.861C110.525 310.431 108.303 308.204 106.045 305.977C103.652 303.618 101.397 301.122 99.197 298.583C95.028 293.772 90.982 288.856 87.016 283.876C84.106 280.222 81.219 276.483 78.794 272.474C72.069 272.373 59.791 272.575 47.892 274.773C47.867 276.004 48.024 277.252 48.416 278.507ZM135.336 352.32C135.338 352.416 135.338 352.508 135.336 352.598C135.338 352.508 135.338 352.415 135.336 352.32Z" fill="#FC8817"/>
<path d="M50.4189 357.548C50.0699 353.715 49.5819 349.884 48.8769 346.098C49.8889 348.724 50.8459 351.292 51.7499 353.767C51.8249 353.992 52.0659 354.123 52.2989 354.06C52.5409 353.994 52.6829 353.745 52.6169 353.504C51.7499 350.319 50.7269 347.197 49.6719 344.078C43.5889 326.832 34.3039 305.156 20.3189 293.021C19.5459 292.369 18.7429 291.747 17.9159 291.158C17.7149 291.501 17.5149 291.853 17.3169 292.213C18.0189 292.815 18.7029 293.438 19.3669 294.08C31.1989 305.922 40.2609 324.517 47.0719 341.508C47.3709 343.552 47.6029 345.604 47.7679 347.66C48.3709 356.513 48.0799 365.481 47.1509 374.303C48.4529 374.47 49.7569 374.632 51.0599 374.79C51.1349 369.016 50.9039 363.306 50.4189 357.548Z" fill="#FB7007"/>
<path d="M226.215 357.548C226.564 353.715 227.052 349.884 227.757 346.098C226.745 348.724 225.788 351.292 224.884 353.767C224.809 353.992 224.568 354.123 224.336 354.06C224.094 353.994 223.952 353.745 224.018 353.504C224.885 350.319 225.908 347.197 226.963 344.078C233.046 326.832 242.331 305.156 256.316 293.021C257.089 292.369 257.892 291.747 258.718 291.158C258.92 291.501 259.119 291.853 259.317 292.213C258.615 292.815 257.931 293.438 257.267 294.08C245.435 305.922 236.374 324.517 229.562 341.508C229.263 343.552 229.031 345.604 228.866 347.66C228.263 356.513 228.554 365.481 229.483 374.303C228.181 374.47 226.877 374.632 225.574 374.79C225.499 369.016 225.73 363.306 226.215 357.548Z" fill="#FB7007"/>
<path d="M135.464 347.515C135.177 347.041 135.46 345.318 135.421 344.757C135.234 342.065 134.699 339.393 134.001 336.791C131.228 326.439 125.631 316.94 119.149 308.495C111.14 298.062 101.619 288.917 93.4379 278.627C86.9429 270.457 75.8549 256.534 79.0909 245.207C79.5389 243.64 80.3528 242.207 81.6248 241.166C80.9438 241.723 78.2218 241.673 77.3398 241.884C69.5278 243.756 62.4558 248.099 56.6488 253.581C51.6608 258.29 46.1308 265.403 48.4158 272.718C50.5988 279.705 57.2408 285.502 62.5578 290.132C69.8868 296.515 77.8378 302.172 85.7948 307.736C100.947 318.33 117.912 328.085 130.746 341.57C132.489 343.402 134.151 345.347 135.464 347.515Z" fill="#FDAA2D"/>
<path d="M108.265 314.852C108.754 314.24 109.51 313.671 110.671 313.482C112.207 313.232 113.753 313.851 114.801 315.002C118.08 318.598 124.856 330.435 119.043 363.92C119.043 363.92 116.054 365.752 112.798 363.071C112.798 363.071 118.717 330.53 108.317 317.785C107.62 316.93 107.577 315.714 108.265 314.852Z" fill="#CC703E"/>
<path d="M135.208 347.515C135.495 347.041 135.212 345.318 135.251 344.757C135.438 342.065 135.973 339.393 136.671 336.791C139.444 326.439 145.041 316.94 151.523 308.495C159.532 298.062 169.054 288.917 177.234 278.627C183.729 270.457 194.817 256.534 191.581 245.207C191.133 243.64 190.319 242.207 189.047 241.166C189.728 241.723 192.449 241.673 193.332 241.884C201.144 243.756 208.216 248.099 214.024 253.581C219.012 258.29 224.542 265.403 222.257 272.718C220.074 279.705 213.431 285.502 208.114 290.132C200.785 296.515 192.834 302.172 184.877 307.736C169.725 318.33 152.76 328.085 139.926 341.57C138.182 343.402 136.521 345.347 135.208 347.515Z" fill="#FDAA2D"/>
<path d="M162.406 314.852C161.917 314.24 161.161 313.671 160 313.482C158.464 313.232 156.918 313.851 155.87 315.002C152.591 318.598 145.815 330.435 151.628 363.92C151.628 363.92 154.617 365.752 157.873 363.071C157.873 363.071 151.954 330.53 162.354 317.785C163.051 316.93 163.095 315.714 162.406 314.852Z" fill="#CC703E"/>
<path d="M203.929 70.1781C204.558 79.4961 203.382 89.1621 202.861 98.2131C201.956 113.933 200.549 129.623 198.401 145.222C196.387 159.849 193.897 174.845 188.471 188.623C181.67 205.894 163.521 216.609 147.177 223.402C143.847 224.786 140.52 226.582 136.89 227.019C132.98 227.49 129.442 225.828 125.887 224.437C118.365 221.493 111.054 217.896 104.3 213.453C94.9719 207.318 86.1989 199.215 82.0279 188.623C70.9259 160.432 69.3639 127.639 67.6079 97.7071C66.7899 83.7681 64.3479 68.5131 70.3189 55.4171C73.8389 47.6971 79.4889 41.1301 86.4079 36.2491C100.798 26.0991 119.249 23.3691 136.468 23.3691C159.418 23.3691 186.626 28.8401 198.697 50.6861C202.045 56.7471 203.469 63.3691 203.929 70.1781Z" fill="#F6B687"/>
<path d="M99.0418 158.281C99.0418 158.281 87.0278 156.404 85.9548 146.642C84.8818 136.88 94.7508 130.069 104.191 131.249C113.631 132.429 120.604 140.359 121.784 154.683C121.784 154.683 112.504 161.016 99.0418 158.281Z" fill="white"/>
<path d="M90.6649 154.373C94.7229 156.79 99.4039 158.052 104.085 158.485C105.636 158.652 107.276 158.654 108.835 158.696C108.997 158.69 109.029 158.945 108.856 158.966C108.061 159.067 107.261 159.173 106.457 159.225C102.427 159.449 98.2989 158.817 94.6069 157.155C93.1319 156.484 91.7109 155.676 90.4939 154.583C90.3759 154.473 90.5219 154.271 90.6649 154.373Z" fill="#844E3D"/>
<path d="M119.259 142.786C116.077 134.122 108.625 129.384 99.3918 130.279C95.3888 130.667 91.3478 132.064 88.5508 135.065C87.1648 136.552 86.0978 138.333 85.4328 140.254C84.7508 142.225 84.6788 144.22 85.1128 146.259C85.4838 148.004 86.1788 149.695 87.1538 151.19C87.2258 151.316 87.4408 151.227 87.4038 151.088C86.9108 148.44 86.7478 145.834 87.1278 143.38C88.2358 135.607 96.9508 132.149 103.985 132.209C109.333 132.273 114.044 134.958 116.879 139.514C118.32 141.731 119.339 144.209 120.107 146.74C120.882 149.284 121.454 151.904 121.64 154.559C121.645 154.633 121.709 154.69 121.784 154.685C121.859 154.68 121.915 154.616 121.911 154.541C121.618 150.52 120.703 146.548 119.259 142.786Z" fill="#231F20"/>
<path d="M106.029 156.864C112.358 156.864 117.489 151.734 117.489 145.404C117.489 139.075 112.358 133.944 106.029 133.944C99.6997 133.944 94.5688 139.075 94.5688 145.404C94.5688 151.734 99.6997 156.864 106.029 156.864Z" fill="#8A4A2E"/>
<path d="M106.029 151.975C109.658 151.975 112.6 149.033 112.6 145.404C112.6 141.775 109.658 138.833 106.029 138.833C102.4 138.833 99.4578 141.775 99.4578 145.404C99.4578 149.033 102.4 151.975 106.029 151.975Z" fill="#241F20"/>
<path d="M107.823 143.067C107.823 145.35 109.674 147.201 111.957 147.201C114.24 147.201 116.091 145.35 116.091 143.067C116.091 140.784 114.24 138.933 111.957 138.933C109.674 138.933 107.823 140.784 107.823 143.067Z" fill="white"/>
<path d="M81.1108 124.248C81.1108 124.248 86.4768 123.792 91.6738 122.005C96.8708 120.218 100.885 121.452 105.071 123.624C109.257 125.796 123.843 131.306 123.628 129.369C123.628 129.369 124.806 129.988 124.777 128.518C124.777 128.518 125.356 117.724 119.044 116.651C112.732 115.577 97.3918 112.448 92.8098 115.001C88.2268 117.552 84.7628 120.448 81.1108 124.248Z" fill="#754C29"/>
<path d="M125.347 118.938C125.347 118.938 124.229 118.704 124.611 120.09C124.993 121.476 126.397 125.047 125.565 129.759C125.565 129.759 125.96 130.778 126.477 129.11C126.994 127.442 127.544 122.28 125.347 118.938Z" fill="#754C29"/>
<path d="M171.484 158.281C171.484 158.281 183.498 156.404 184.571 146.642C185.644 136.881 175.775 130.069 166.335 131.249C156.895 132.429 149.922 140.359 148.742 154.683C148.742 154.683 158.022 161.016 171.484 158.281Z" fill="white"/>
<path d="M179.861 154.373C175.802 156.79 171.121 158.052 166.441 158.485C164.89 158.652 163.25 158.654 161.691 158.696C161.529 158.69 161.497 158.945 161.669 158.966C162.464 159.067 163.264 159.173 164.068 159.225C168.098 159.449 172.226 158.817 175.918 157.155C177.394 156.484 178.814 155.676 180.031 154.583C180.15 154.473 180.004 154.271 179.861 154.373Z" fill="#844E3D"/>
<path d="M151.267 142.786C154.449 134.122 161.901 129.384 171.134 130.279C175.137 130.667 179.178 132.064 181.975 135.065C183.361 136.552 184.428 138.333 185.093 140.254C185.775 142.225 185.847 144.22 185.413 146.259C185.042 148.004 184.347 149.695 183.372 151.19C183.3 151.316 183.085 151.227 183.122 151.088C183.615 148.44 183.778 145.834 183.398 143.38C182.29 135.607 173.575 132.149 166.541 132.209C161.193 132.273 156.483 134.958 153.647 139.514C152.206 141.731 151.187 144.209 150.419 146.74C149.644 149.284 149.072 151.904 148.886 154.559C148.881 154.633 148.817 154.69 148.742 154.685C148.667 154.68 148.611 154.616 148.615 154.541C148.908 150.52 149.823 146.548 151.267 142.786Z" fill="#231F20"/>
<path d="M164.497 156.864C170.826 156.864 175.957 151.734 175.957 145.404C175.957 139.075 170.826 133.944 164.497 133.944C158.168 133.944 153.037 139.075 153.037 145.404C153.037 151.734 158.168 156.864 164.497 156.864Z" fill="#8A4A2E"/>
<path d="M164.497 151.975C168.126 151.975 171.068 149.033 171.068 145.404C171.068 141.775 168.126 138.833 164.497 138.833C160.868 138.833 157.926 141.775 157.926 145.404C157.926 149.033 160.868 151.975 164.497 151.975Z" fill="#241F20"/>
<path d="M162.703 143.067C162.703 145.35 160.852 147.201 158.569 147.201C156.286 147.201 154.435 145.35 154.435 143.067C154.435 140.784 156.286 138.933 158.569 138.933C160.852 138.933 162.703 140.784 162.703 143.067Z" fill="white"/>
<path d="M189.415 124.248C189.415 124.248 184.049 123.792 178.852 122.005C173.655 120.218 169.641 121.452 165.455 123.624C161.269 125.796 146.683 131.306 146.898 129.369C146.898 129.369 145.72 129.988 145.749 128.518C145.749 128.518 145.17 117.724 151.482 116.651C157.794 115.577 173.134 112.448 177.716 115.001C182.299 117.552 185.763 120.448 189.415 124.248Z" fill="#754C29"/>
<path d="M145.179 118.938C145.179 118.938 146.297 118.704 145.915 120.09C145.533 121.476 144.129 125.047 144.961 129.759C144.961 129.759 144.566 130.778 144.049 129.11C143.532 127.442 142.982 122.28 145.179 118.938Z" fill="#754C29"/>
<g opacity="0.5">
<path d="M144.001 174.424C143.633 172.734 141.987 171.429 140.397 170.857C138.359 170.124 136.13 169.871 133.972 170.07C131.998 170.252 129.785 170.733 128.186 171.944C128.008 172.079 127.838 172.222 127.678 172.376C125.271 174.676 126.793 177.91 128.595 180.017C129.47 181.041 130.516 181.908 131.673 182.567C132.917 183.276 134.384 183.51 135.793 183.39C137.273 183.264 138.729 182.736 139.937 181.868C140.93 181.155 141.782 180.178 142.531 179.204C143.556 177.871 144.371 176.126 144.001 174.424ZM135.263 177.13C131.815 177.13 129.02 175.849 129.02 174.27C129.02 172.69 131.815 171.41 135.263 171.41C138.711 171.41 141.506 172.691 141.506 174.27C141.506 175.85 138.711 177.13 135.263 177.13Z" fill="#EE955C"/>
</g>
<path d="M132.851 179.56C132.297 179.049 131.648 178.689 130.95 178.384C130.463 178.171 129.221 177.685 129.131 178.589C129.109 178.813 129.219 179.031 129.362 179.206C130.167 180.192 131.577 180.998 132.872 181.039C133.126 181.047 133.48 180.991 133.573 180.712C133.681 180.389 133.354 180.085 133.162 179.872C133.061 179.762 132.958 179.658 132.851 179.56Z" fill="#754C29"/>
<path d="M137.675 179.56C138.229 179.049 138.878 178.689 139.576 178.384C140.063 178.171 141.305 177.685 141.395 178.589C141.417 178.813 141.307 179.031 141.164 179.206C140.359 180.192 138.949 180.998 137.654 181.039C137.4 181.047 137.046 180.991 136.953 180.712C136.845 180.389 137.172 180.085 137.364 179.872C137.465 179.762 137.568 179.658 137.675 179.56Z" fill="#754C29"/>
<path d="M161.81 190.35C157.499 193.347 152.32 194.67 147.232 195.61C146.641 195.697 145.241 195.898 144.676 195.981C144.151 196.035 142.657 196.187 142.108 196.241C140.131 196.421 137.253 196.491 135.239 196.504V195.969H135.316V196.504L131.879 196.458C129.927 196.369 127.825 196.217 125.877 195.996C125.307 195.916 123.9 195.711 123.32 195.629C119.365 194.933 115.392 193.926 111.762 192.164C110.71 191.655 109.707 191.116 108.717 190.384L109.33 189.635C112.992 192.245 117.421 193.602 121.778 194.575L123.445 194.915C124.027 195.009 125.41 195.228 125.967 195.318C127.897 195.567 129.97 195.75 131.906 195.869L135.317 195.969V196.504H135.24V195.969C137.899 195.923 141.126 195.777 143.746 195.43C144.706 195.34 146.156 195.078 147.115 194.934C150.992 194.194 154.873 193.155 158.406 191.379C159.405 190.883 160.409 190.312 161.254 189.668L161.81 190.35Z" fill="#ED8148"/>
<path d="M76.5139 153.876C74.7929 149.175 72.7959 144.552 69.4409 140.761C63.2869 133.808 51.9489 137.079 48.7129 145.29C46.1569 151.776 48.9119 159.249 52.1369 164.988C55.1049 170.27 59.0059 175.655 64.8579 178.05C69.7349 180.046 78.6469 180.728 80.5869 174.325C82.1919 169.028 79.4029 162.048 77.6569 157.085C77.2819 156.017 76.9049 154.944 76.5139 153.876Z" fill="#F6B687"/>
<path d="M68.8929 154.964C68.8929 154.964 64.6139 152.699 64.3619 157.901C64.1099 163.103 68.7249 166.04 68.7249 166.04C68.7249 166.04 55.9719 168.222 54.7129 154.881C53.4549 141.54 66.3759 142.715 68.8929 154.964Z" fill="#ED8148"/>
<path d="M194.012 153.876C195.733 149.175 197.73 144.552 201.085 140.761C207.239 133.808 218.577 137.079 221.813 145.29C224.369 151.776 221.614 159.249 218.389 164.988C215.421 170.27 211.52 175.655 205.668 178.05C200.791 180.046 191.879 180.728 189.939 174.325C188.334 169.028 191.123 162.048 192.869 157.085C193.244 156.017 193.621 154.944 194.012 153.876Z" fill="#F6B687"/>
<path d="M201.633 154.964C201.633 154.964 205.912 152.699 206.164 157.901C206.416 163.103 201.801 166.04 201.801 166.04C201.801 166.04 214.554 168.222 215.813 154.881C217.071 141.54 204.15 142.715 201.633 154.964Z" fill="#ED8148"/>
<path d="M198.738 143.381C199.824 123.988 189.274 95.9062 189.274 95.9062C188.498 105.37 179.345 105.37 179.345 105.37C188.964 101.647 182.241 79.6402 182.241 79.6402C182.241 79.6402 174.643 104.865 131.184 108.511C87.7249 112.158 84.9899 98.4822 84.9899 98.4822C84.9899 98.4822 95.7189 106.768 117.562 99.2082C117.562 99.2082 88.9979 102.4 80.9329 90.3032C80.9329 90.3032 69.3399 115.842 70.8519 141.55C70.8519 141.55 56.9059 108.786 57.7459 78.7102C57.7459 78.7102 53.2819 85.5172 54.5889 91.0372C54.5889 91.0372 47.0349 69.9742 61.9969 57.6272C61.9969 57.6272 53.8619 60.3872 51.3929 70.4102C51.3929 70.4102 49.9399 34.6762 82.7689 24.2172C82.7689 24.2172 68.8239 23.6362 67.5169 11.2892C67.5169 11.2892 76.3779 20.1502 91.0489 12.1612C105.72 4.17216 119.956 -2.36484 142.907 0.831159C165.858 4.02716 181.401 14.7762 183.871 30.3192C183.871 30.3192 185.324 24.6542 181.402 17.6812C181.402 17.6812 186.777 20.1502 187.503 27.9952C187.503 27.9952 190.408 23.4922 199.269 24.7992C199.269 24.7992 194.04 27.2682 193.023 33.3692C193.023 33.3692 206.617 34.3392 214.812 50.8002C231.372 84.0632 198.738 143.381 198.738 143.381Z" fill="#593A34"/>
<path opacity="0.45" d="M181.251 52.9697C188.34 95.5017 121.44 102.148 121.44 102.148C151.345 90.8497 150.681 71.5777 150.681 71.5777C150.681 71.5777 129.858 89.5207 104.162 87.0837C78.466 84.6467 90.206 65.3747 90.206 65.3747C68.275 73.5707 77.136 89.7417 77.136 89.7417L66.946 110.122C61.408 101.04 57.745 78.7077 57.745 78.7077C56.905 108.784 70.851 141.548 70.851 141.548C69.339 115.841 80.932 90.3017 80.932 90.3017C88.997 102.399 117.561 99.2067 117.561 99.2067C95.718 106.768 84.989 98.4807 84.989 98.4807C84.989 98.4807 87.724 112.157 131.183 108.51C174.642 104.863 182.24 79.6387 182.24 79.6387C182.24 79.6387 188.963 101.646 179.344 105.369C179.344 105.369 184.754 105.364 187.608 101.06C188.236 99.3937 188.798 97.6767 189.274 95.9047C196.19 70.1697 181.251 52.9697 181.251 52.9697Z" fill="#3F2622"/>
</svg>
