<svg width="500" height="500" viewBox="0 0 500 500" fill="none" xmlns="http://www.w3.org/2000/svg">
<g clip-path="url(#clip0_554_2997)">
<path d="M331.983 202.156C368.986 202.156 398.983 171.935 398.983 134.656C398.983 97.377 368.986 67.1562 331.983 67.1562C294.98 67.1562 264.983 97.377 264.983 134.656C264.983 171.935 294.98 202.156 331.983 202.156Z" fill="#F7F7F7"/>
<path d="M114.983 240.156C150.881 240.156 179.983 211.055 179.983 175.156C179.983 139.258 150.881 110.156 114.983 110.156C79.0844 110.156 49.9829 139.258 49.9829 175.156C49.9829 211.055 79.0844 240.156 114.983 240.156Z" fill="#F7F7F7"/>
<path d="M245.361 459.813C368.72 459.813 468.723 452.702 468.723 443.93C468.723 435.158 368.72 428.047 245.361 428.047C122.002 428.047 22 435.158 22 443.93C22 452.702 122.002 459.813 245.361 459.813Z" fill="#8EADD5"/>
<path d="M140.399 435.938C137.334 437.511 135.452 440.584 137.157 443.638C138.862 446.692 150.8 446.407 161.967 446.449C173.133 446.492 179.758 446.231 180.817 439.501C181.877 432.772 167.302 428.316 165.575 428.32C163.847 428.325 162.777 429.906 162.777 429.906L140.399 435.938Z" fill="#2E344B"/>
<path d="M139.848 407.27C139.88 407.666 137.651 438.144 138.522 440.732C139.393 443.321 159.582 443.178 159.582 443.178C159.582 443.178 159.306 434.694 162.779 429.9L156.151 427.326C156.151 427.326 161.214 410.223 161.3 407.958C161.385 405.69 139.848 407.27 139.848 407.27Z" fill="#D8877B"/>
<path d="M139.848 407.269C139.861 407.432 139.491 412.697 139.112 419.013C145.752 420.254 152.731 419.617 159.046 417.221C159.464 415.714 159.869 414.219 160.219 412.874L157.884 406.886C151.83 406.391 139.848 407.269 139.848 407.269Z" fill="#B44E50"/>
<path d="M149.822 435.832C149.516 435.873 149.214 435.937 148.924 436.049C148.596 436.177 148.285 436.398 147.978 436.572C147.496 436.844 146.98 437.095 146.45 437.155C146.006 437.207 145.582 437.166 145.187 436.989C144.962 436.888 144.818 436.79 144.633 436.621C144.419 436.427 144.291 436.177 143.961 436.129C143.736 436.096 143.515 436.198 143.41 436.406C143.06 437.104 143.927 437.82 144.456 438.13C145.026 438.465 145.701 438.595 146.355 438.594C147.079 438.594 147.805 438.362 148.449 438.046C149.212 437.673 149.848 437.197 150.224 436.418C150.355 436.151 150.136 435.789 149.822 435.832Z" fill="#B44E50"/>
<path d="M159.582 443.183C159.582 443.183 159.306 434.699 162.779 429.905L162.077 429.633C159.79 431.22 158.111 433.672 157.127 436.304C156.306 438.498 155.912 440.815 155.692 443.154C157.994 443.195 159.582 443.183 159.582 443.183Z" fill="#B44E50"/>
<path d="M72.5527 433.073C69.3732 434.398 67.2539 437.313 68.7113 440.493C70.1687 443.672 82.0913 444.334 93.2197 445.262C104.348 446.19 110.972 446.454 112.562 439.831C114.151 433.207 99.9759 427.609 98.2538 427.477C96.5316 427.345 95.339 428.835 95.339 428.835L72.5527 433.073Z" fill="#2E344B"/>
<path d="M74.2748 404.453C74.2748 404.85 69.6379 435.056 70.301 437.706C70.9629 440.356 91.1003 441.812 91.1003 441.812C91.1003 441.812 91.4975 433.334 95.34 428.829L88.9372 425.738C88.9372 425.738 95.34 409.09 95.6059 406.838C95.8696 404.586 74.2748 404.453 74.2748 404.453Z" fill="#D8877B"/>
<path d="M74.275 404.453C74.275 404.617 73.4886 409.836 72.6101 416.102C79.1318 417.865 86.1383 417.784 92.6241 415.894C93.1592 414.426 93.6821 412.967 94.1364 411.655L92.283 405.5C86.2886 404.527 74.275 404.453 74.275 404.453Z" fill="#B44E50"/>
<path d="M75.335 239.646C72.1555 250.245 66.8566 283.63 70.5657 299.527C74.2748 315.424 74.8055 341.655 75.8646 357.553C76.9248 373.45 69.5055 409.219 69.5055 409.219C69.5055 409.219 88.5827 415.578 98.386 414.253C98.386 414.253 111.898 363.116 116.668 344.304C121.437 325.491 123.027 304.56 123.027 304.56C123.027 304.56 130.976 338.21 133.89 355.432C136.805 372.655 135.48 414.518 135.48 414.518C135.48 414.518 151.643 417.963 164.096 415.578C164.096 415.578 164.625 352.783 162.506 316.219C160.387 279.654 147.404 238.32 147.404 238.32L75.335 239.646Z" fill="#6779B7"/>
<path d="M148.804 243.029C148.542 242.117 148.311 241.327 148.114 240.668L145.729 238.352L75.3352 239.645C74.8797 241.163 74.3804 243.161 73.8711 245.496C115.658 263.968 143.367 246.886 148.804 243.029Z" fill="#2E344B"/>
<path d="M207.462 215.453C208.963 216.778 214.263 220.134 216.558 220.222C218.855 220.311 226.804 221.105 229.099 221.724C231.396 222.342 231.013 223.556 230.13 224.174C229.247 224.792 225.39 225.345 225.39 225.345C225.39 225.345 231.749 229.231 233.163 230.379C234.576 231.527 234.311 233.294 232.545 233.559C232.545 233.559 234.223 234.53 233.605 236.031C232.987 237.533 231.308 237.092 231.308 237.092C231.308 237.092 231.486 239.564 229.189 239.829C229.189 239.829 229.278 241.419 226.981 241.154C224.684 240.889 218.59 236.914 217.178 236.12C215.765 235.325 200.044 227.906 200.044 227.906L207.462 215.453Z" fill="#D8877B"/>
<path d="M206.516 217.039L200.042 227.905C200.042 227.905 202.952 229.278 206.378 230.905C210.072 225.437 211.13 220.239 211.418 218.13C210.829 217.79 210.255 217.438 209.729 217.097L206.516 217.039Z" fill="#B44E50"/>
<path d="M80.1932 96.1251C82.8432 95.2422 89.6061 113.287 85.9341 114.938C82.262 116.588 77.2785 110.257 77.2785 110.257L76.3955 101.955L80.1932 96.1251Z" fill="#2E344B"/>
<path d="M82.0477 113.263C85.5806 111.32 86.1101 111.231 91.2328 111.938C96.3555 112.645 101.478 110.966 101.478 110.966L106.777 102.488C106.777 102.488 104.658 89.5938 104.127 89.5938C103.598 89.5938 94.7647 92.7733 90.3488 94.0096C85.9329 95.246 76.3943 98.9551 76.3943 98.9551L82.0477 113.263Z" fill="#D8877B"/>
<path d="M125.063 78.4175C93.9232 74.8879 90.9904 102.491 91.9172 119.897C92.8427 137.304 61.3627 161.377 80.4365 195.635C99.5092 229.893 134.137 220.634 144.322 201.746C154.507 182.858 143.952 148.6 145.803 126.565C147.655 104.527 152.84 81.5656 125.063 78.4175Z" fill="#2E344B"/>
<path d="M76.9529 100.362L82.0475 113.259C84.168 112.093 85.2102 111.598 86.809 111.539C83.4937 107.49 81.3946 102.46 80.883 97.25C80.635 97.342 80.3972 97.4306 80.1616 97.5193L76.9529 100.362Z" fill="#B44E50"/>
<path d="M93.8828 143.208C78.2499 142.678 66.2442 133.222 64.7375 127.839C64.1193 125.632 85.934 114.945 85.934 114.945C85.934 114.945 79.5749 109.734 80.1931 96.1328C80.1931 96.1328 46.7194 107.437 37.4467 121.216C28.1729 134.994 65.0023 163.875 83.0192 171.028C83.0192 171.028 82.2249 189.045 81.959 202.294C81.6942 215.541 73.7454 240.183 73.7454 240.183C73.7454 240.183 108.72 260.321 150.584 241.508C150.584 241.508 144.225 217.132 144.489 208.919C144.754 200.705 149.259 191.961 148.198 182.953C148.198 182.953 158.664 200.837 167.673 210.111C176.682 219.385 203.045 231.44 203.045 231.44C203.045 231.44 209.933 222.431 211.523 216.072C211.523 216.072 184.232 197.26 181.318 192.49C178.403 187.721 165.42 160.165 159.326 155.131C153.231 150.097 142.251 146.883 137.732 146.785C133.212 146.688 120.112 150.627 120.112 150.627L93.8828 143.208Z" fill="#EFF3FF"/>
<path d="M105.805 129.289C105.805 129.289 104.216 139.754 102.494 141.875C100.771 143.994 93.8828 143.2 93.8828 143.2C93.8828 143.2 97.4595 158.965 114.815 159.892C132.17 160.82 137.733 146.776 137.733 146.776C137.733 146.776 132.302 146.379 130.182 145.187C128.062 143.994 128.459 137.901 128.459 137.901L105.805 129.289Z" fill="#D8877B"/>
<path d="M128.327 140.682L126.541 137.171L105.806 129.289C105.806 129.289 105.098 133.935 104.116 137.663C115.741 148.632 128.327 140.682 128.327 140.682Z" fill="#B44E50"/>
<path d="M103.768 113.411C103.768 113.411 102.703 111.143 98.3974 112.671C94.0926 114.199 92.7036 125.494 102.286 123.411C102.286 123.411 107.971 144.508 128.58 141.281C146.913 138.411 143.024 108.597 143.024 108.597C143.024 108.597 137.839 104.523 134.135 97.6719C134.137 97.6708 125.805 108.596 103.768 113.411Z" fill="#D8877B"/>
<path d="M232.46 233.206C232.141 232.955 231.743 232.815 231.376 232.642C231.026 232.477 230.678 232.312 230.329 232.145C229.58 231.787 228.829 231.438 228.079 231.086C227.329 230.734 226.585 230.366 225.834 230.013C225.483 229.848 225.129 229.69 224.777 229.528C224.459 229.379 224.16 229.218 223.805 229.195C223.775 229.193 223.769 229.228 223.783 229.247C224.032 229.56 224.398 229.727 224.739 229.922C225.075 230.113 225.409 230.307 225.749 230.49C226.452 230.869 227.165 231.235 227.876 231.601C228.589 231.967 229.302 232.326 230.025 232.669C230.373 232.835 230.724 232.999 231.074 233.163C231.437 233.332 231.813 233.564 232.208 233.644C232.433 233.689 232.685 233.382 232.46 233.206Z" fill="#B44E50"/>
<path d="M231.406 236.588C230.001 235.776 228.476 235.093 226.994 234.433C226.258 234.105 225.519 233.783 224.776 233.469C224.14 233.199 223.359 232.768 222.657 232.807C222.63 232.808 222.619 232.839 222.636 232.859C223.108 233.411 224.011 233.705 224.654 234.007C225.356 234.336 226.054 234.672 226.751 235.014C228.19 235.721 229.62 236.486 231.081 237.143C231.449 237.309 231.771 236.8 231.406 236.588Z" fill="#B44E50"/>
<path d="M229.435 239.36C228.783 239.028 228.08 238.783 227.417 238.468C226.753 238.151 226.094 237.824 225.447 237.471C224.811 237.125 224.201 236.733 223.57 236.379C223.004 236.06 222.439 235.796 221.776 235.831C221.723 235.835 221.688 235.916 221.746 235.943C223.01 236.531 224.139 237.364 225.351 238.047C225.971 238.397 226.603 238.727 227.249 239.029C227.885 239.326 228.547 239.664 229.223 239.861C229.517 239.946 229.715 239.503 229.435 239.36Z" fill="#B44E50"/>
<path d="M222.848 224.794C222.287 224.977 221.812 225.347 221.271 225.582C220.722 225.821 220.135 225.987 219.544 226.086C218.951 226.184 218.343 226.203 217.745 226.155C217.14 226.107 216.559 225.943 215.961 225.858C215.669 225.816 215.458 226.19 215.747 226.365C216.854 227.03 218.4 227.031 219.64 226.855C220.29 226.762 220.924 226.592 221.531 226.341C222.144 226.088 222.801 225.801 223.196 225.246C223.353 225.028 223.092 224.713 222.848 224.794Z" fill="#B44E50"/>
<path d="M221.203 227.606C220.69 227.54 220.162 228.187 219.849 228.514C219.431 228.949 219.056 229.423 218.73 229.93C218.412 230.427 218.142 230.954 217.918 231.5C217.688 232.058 217.428 232.675 217.484 233.285C217.506 233.529 217.845 233.671 217.979 233.42C218.247 232.916 218.341 232.343 218.543 231.81C218.747 231.273 219.007 230.758 219.309 230.269C219.604 229.791 219.937 229.334 220.311 228.913C220.507 228.692 220.723 228.491 220.925 228.277C221.078 228.116 221.253 227.911 221.279 227.683C221.285 227.639 221.24 227.611 221.203 227.606Z" fill="#B44E50"/>
<path d="M101.639 118.741C101.642 118.689 101.65 118.639 101.643 118.589C101.691 117.42 101.383 115.935 100.351 115.266C99.8582 114.947 99.194 114.886 98.6824 115.193C98.2393 115.459 97.8477 116.002 97.8982 116.532C97.9184 116.747 98.1495 116.937 98.3604 116.796C98.5355 116.681 98.6398 116.559 98.7722 116.398C98.8642 116.287 98.9584 116.159 99.0773 116.075C99.3376 115.89 99.6641 115.998 99.8773 116.204C100.161 116.48 100.262 116.891 100.335 117.267C100.37 117.444 100.38 117.629 100.384 117.812C100.274 117.831 100.167 117.857 100.062 117.893C99.3791 118.128 98.8036 118.611 98.5848 119.317C98.375 119.998 98.5994 120.802 99.2198 121.186C99.7561 121.52 100.63 121.484 100.826 120.777C100.888 120.555 100.716 120.365 100.502 120.351C100.406 120.344 100.228 120.317 100.154 120.304C100.09 120.292 99.9345 120.237 99.9008 120.218C99.7651 120.144 99.7045 119.983 99.7382 119.795C99.7842 119.547 99.9457 119.405 100.147 119.294C100.226 119.249 100.352 119.206 100.483 119.175C100.562 119.272 100.66 119.356 100.799 119.394C101.163 119.494 101.502 119.271 101.617 118.929C101.638 118.87 101.634 118.811 101.64 118.752C101.638 118.751 101.639 118.745 101.639 118.741Z" fill="#B44E50"/>
<path d="M143.171 110.066C143.095 109.14 143.025 108.597 143.025 108.597C143.025 108.597 137.84 104.523 134.136 97.6719C134.136 97.6719 125.804 108.597 103.767 113.412C103.767 113.412 122.863 111.259 133.789 100.519C133.791 100.519 138.929 106.768 143.171 110.066Z" fill="#B44E50"/>
<path d="M148.388 179.968C147.801 177.951 146.984 175.337 145.171 174.121C144.923 173.955 144.632 174.229 144.693 174.489C144.955 175.591 145.569 176.478 146.053 177.49C146.555 178.539 146.955 179.633 147.27 180.752C147.9 182.991 148.165 185.313 148.13 187.637C148.056 192.679 146.705 197.717 145.273 202.522C145.243 202.622 145.4 202.694 145.446 202.595C147.716 197.713 149.344 192.612 149.357 187.178C149.363 184.752 149.066 182.3 148.388 179.968Z" fill="#6779B7"/>
<path d="M74.956 99.559C74.965 102.671 75.3734 105.764 76.1273 108.782C76.8644 111.729 77.9325 114.594 79.2945 117.309C79.4258 117.572 79.5627 117.837 79.6995 118.103C80.1393 117.873 80.569 117.651 80.9808 117.438C79.7107 115.118 78.6696 112.678 77.8854 110.151C77.0855 107.572 76.5537 104.917 76.262 102.234C76.1251 100.974 76.0578 99.7105 76.0264 98.4438C76.0196 98.1993 76.0062 97.9322 75.9916 97.6562C75.6595 97.783 75.305 97.9188 74.9415 98.0601C74.9359 98.7625 74.9549 99.3425 74.956 99.559Z" fill="#6779B7"/>
<path d="M208.4 213.885C208.141 213.703 207.87 213.512 207.587 213.312C207.199 214.313 206.901 215.367 206.502 216.3C205.645 218.307 204.64 220.254 203.524 222.129C202.431 223.963 201.235 225.736 199.993 227.471C199.558 228.079 199.075 228.69 198.598 229.311C199.091 229.552 199.548 229.773 199.971 229.978C200.352 229.415 200.72 228.856 201.081 228.332C202.331 226.523 203.531 224.679 204.622 222.77C206.26 219.903 207.408 216.955 208.4 213.885Z" fill="#6779B7"/>
<path d="M149.113 235.577C148.306 235.979 147.493 236.371 146.677 236.754C144.123 237.95 141.495 238.949 138.821 239.838C133.602 241.572 128.253 242.88 122.802 243.648C111.793 245.196 100.288 244.412 89.5665 241.5C86.5587 240.684 83.6327 239.637 80.7751 238.392C78.8241 237.541 77.001 236.508 75.1969 235.422C75.1386 235.62 75.0803 235.818 75.0242 236.006C78.4988 238.652 82.7093 240.455 86.7853 241.784C92.0617 243.506 97.5557 244.567 103.073 245.138C114.492 246.319 126.104 245.181 137.123 242.003C140.187 241.119 143.18 239.98 146.116 238.738C147.267 238.251 148.389 237.716 149.493 237.138C149.371 236.647 149.246 236.13 149.113 235.577Z" fill="#6779B7"/>
<path d="M122.409 164.324C128.035 163.452 132.341 160.253 136.117 156.154C138.35 153.73 140.548 150.659 141.879 147.356C141.427 147.259 140.992 147.173 140.576 147.1C140.529 147.218 140.497 147.336 140.446 147.453C139.477 149.69 138.147 151.777 136.645 153.692C133.422 157.802 129.339 161.367 124.184 162.673C114.45 165.138 103.097 162.939 96.2131 155.265C93.0089 151.692 91.3507 147.531 90.7471 142.964C90.4004 142.926 90.0639 142.867 89.7217 142.82C89.9225 146.971 91.8028 151.141 94.2352 154.365C97.3384 158.479 101.699 161.413 106.563 163.052C111.595 164.747 117.172 165.135 122.409 164.324Z" fill="#6779B7"/>
<path d="M100.572 403.834C96.7078 404.208 92.8147 404.264 88.943 403.987C85.3483 403.73 81.7784 403.131 78.3161 402.124C77.0427 401.754 75.8064 401.294 74.579 400.814C75.7974 396.564 75.7424 392.09 76.0353 387.71C76.3528 382.97 77.1202 378.302 78.0783 373.651C79.9553 364.54 82.2844 355.465 82.373 346.107C82.465 336.435 81.3868 326.583 79.9945 317.022C78.6078 307.509 75.8973 298.246 75.1613 288.631C74.7596 283.385 74.837 278.1 75.3711 272.867C75.5562 271.05 75.8221 269.255 76.134 267.471C76.2507 267.527 76.3887 267.555 76.5547 267.517C79.9182 266.757 83.1168 264.796 85.6883 262.544C87.0054 261.39 88.1823 260.085 89.2201 258.675C89.7216 257.996 90.185 257.288 90.6079 256.556C91.0253 255.834 91.593 254.998 91.6524 254.15C91.6883 253.633 90.9972 253.397 90.6584 253.738C90.1199 254.279 89.8562 255.109 89.477 255.767C89.0743 256.467 88.6345 257.147 88.1599 257.801C87.1804 259.151 86.0372 260.383 84.7896 261.489C82.2945 263.702 79.4504 265.119 76.3505 266.261C76.9451 263.088 77.68 259.944 78.4261 256.784C78.5742 256.154 77.6845 255.923 77.468 256.519C74.3311 265.144 73.3281 274.847 73.5121 283.977C73.7028 293.421 75.8479 302.489 77.7125 311.7C79.6737 321.391 80.735 331.363 81.1333 341.246C81.3307 346.148 81.149 351.034 80.431 355.891C79.7399 360.567 78.637 365.167 77.5835 369.772C76.4403 374.77 75.3442 379.79 74.7787 384.892C74.2076 390.045 74.4915 395.243 73.2989 400.313C72.6527 400.051 72.0076 399.786 71.3613 399.526C71.2974 399.877 71.2346 400.231 71.1729 400.567C73.1396 401.737 75.3217 402.573 77.5027 403.28C80.9841 404.406 84.5922 405.107 88.2294 405.481C92.2426 405.895 96.2871 405.83 100.307 405.554C100.436 405.545 100.565 405.531 100.694 405.521C100.843 404.956 100.997 404.371 101.157 403.765C100.96 403.788 100.766 403.815 100.572 403.834Z" fill="#2E344B"/>
<path d="M126.278 272.7C126.178 272.372 125.764 272.412 125.65 272.7C125.175 273.899 125.261 275.263 125.201 276.534C125.134 277.961 125.073 279.388 125.012 280.816C124.89 283.611 124.774 286.407 124.665 289.203C124.557 291.987 124.398 294.78 123.976 297.538C123.776 298.847 123.521 300.149 123.186 301.432C122.855 302.704 122.307 303.945 122.101 305.242C122.056 305.521 122.385 305.668 122.556 305.434C124.005 303.423 124.466 300.441 124.899 298.049C125.383 295.374 125.632 292.664 125.808 289.954C125.994 287.09 126.093 284.22 126.212 281.353C126.272 279.926 126.333 278.498 126.389 277.07C126.444 275.649 126.697 274.08 126.278 272.7Z" fill="#2E344B"/>
<path d="M132.929 320.328C132.056 316.748 131.145 313.169 129.995 309.666C128.883 306.276 127.588 302.77 125.474 299.866C125.222 299.518 124.713 299.81 124.897 300.204C126.323 303.26 127.709 306.287 128.724 309.511C129.696 312.594 130.462 315.739 131.224 318.879C132.864 325.644 134.257 332.472 135.482 339.325C137.939 353.063 139.267 366.988 139.617 380.936C139.813 388.776 139.765 396.629 139.348 404.461C139.293 405.495 140.914 405.496 140.959 404.461C142.16 376.264 139.622 347.768 132.929 320.328Z" fill="#2E344B"/>
<path d="M164.148 404.786C161.097 405.487 157.995 405.941 154.868 406.113C151.332 406.306 147.782 406.17 144.257 405.846C142.283 405.664 140.312 405.425 138.349 405.147C137.486 405.025 136.587 404.867 135.691 404.773C135.686 405.176 135.679 405.579 135.673 405.963C136.123 406.066 136.587 406.122 136.966 406.19C138.764 406.519 140.59 406.742 142.405 406.96C146.362 407.432 150.351 407.697 154.338 407.558C157.632 407.442 160.919 407.023 164.143 406.335C164.144 405.837 164.147 405.316 164.148 404.786Z" fill="#2E344B"/>
<path d="M152.383 256.294C151.585 256.025 150.8 255.708 150.036 255.311C148.803 254.672 147.62 253.893 146.554 253.003C145.998 252.54 145.47 252.043 144.975 251.515C144.514 251.022 144.116 250.477 143.556 250.09C143.316 249.924 143.004 250.197 143.077 250.459C143.45 251.799 144.804 253.008 145.798 253.921C146.936 254.964 148.204 255.846 149.572 256.561C150.59 257.093 151.672 257.553 152.787 257.897C152.65 257.351 152.517 256.82 152.383 256.294Z" fill="#2E344B"/>
<path d="M81.9545 433.707C81.6459 433.724 81.3408 433.764 81.0423 433.853C80.7046 433.954 80.377 434.15 80.0573 434.298C79.5558 434.531 79.0206 434.74 78.4877 434.758C78.0423 434.774 77.6227 434.699 77.2424 434.492C77.0247 434.375 76.8901 434.265 76.7184 434.082C76.5199 433.871 76.4122 433.612 76.0879 433.538C75.8658 433.487 75.6369 433.572 75.5169 433.77C75.113 434.437 75.9208 435.221 76.4234 435.572C76.9642 435.95 77.6283 436.133 78.2802 436.184C79.0016 436.242 79.7443 436.068 80.4107 435.804C81.2005 435.491 81.8726 435.068 82.309 434.323C82.4605 434.068 82.2708 433.69 81.9545 433.707Z" fill="#B44E50"/>
<path d="M91.1004 441.811C91.1004 441.811 91.4975 433.332 95.3401 428.828L94.6613 428.5C92.2559 429.901 90.3879 432.211 89.1976 434.758C88.2058 436.881 87.6291 439.158 87.2241 441.473C89.5162 441.696 91.1004 441.811 91.1004 441.811Z" fill="#B44E50"/>
<path d="M120.914 109.133C120.54 108.73 119.905 108.784 119.483 109.073C119.357 109.159 119.243 109.262 119.125 109.359C119.105 109.376 119.084 109.391 119.064 109.407C119.028 109.413 118.853 109.561 118.828 109.579C118.746 109.635 118.662 109.689 118.577 109.74C118.53 109.768 118.276 109.94 118.169 109.971C118.207 109.957 118.24 109.939 118.148 109.97C118.101 109.987 118.055 110.005 118.007 110.021C117.923 110.049 117.837 110.073 117.751 110.094C117.664 110.115 117.576 110.128 117.488 110.144C117.468 110.147 117.434 110.153 117.404 110.159C117.392 110.159 117.385 110.158 117.367 110.159C117.278 110.164 117.19 110.167 117.1 110.163C117.056 110.162 117.012 110.155 116.969 110.155C116.96 110.155 116.966 110.156 116.962 110.156C116.879 110.145 116.796 110.133 116.712 110.125C116.679 110.122 116.667 110.121 116.653 110.119C116.585 110.106 116.515 110.094 116.448 110.073C116.064 109.96 115.656 110.055 115.519 110.476C115.356 110.977 115.89 111.407 116.271 111.635C116.643 111.858 117.108 111.934 117.534 111.968C118.359 112.036 119.218 111.699 119.924 111.304C120.335 111.073 120.855 110.797 121.074 110.363C121.285 109.944 121.234 109.478 120.914 109.133Z" fill="#2E344B"/>
<path d="M135.62 110.56C135.598 110.539 135.579 110.523 135.568 110.516C135.58 110.527 135.594 110.537 135.606 110.548C135.611 110.554 135.613 110.555 135.62 110.56Z" fill="#2E344B"/>
<path d="M139.428 112.054C139.349 111.765 139.137 111.593 138.867 111.493C138.631 111.404 138.388 111.364 138.138 111.336C138.131 111.335 138.118 111.333 138.106 111.332C138.259 111.344 137.866 111.301 137.845 111.299C137.748 111.291 137.65 111.29 137.553 111.283C137.518 111.281 137.484 111.276 137.449 111.273C137.363 111.256 137.277 111.243 137.19 111.222C136.989 111.176 136.788 111.12 136.592 111.057C136.516 111.033 136.441 111.005 136.366 110.977C136.373 110.981 136.383 110.986 136.386 110.989C136.383 110.985 136.369 110.98 136.362 110.976C136.348 110.97 136.332 110.965 136.317 110.96C136.214 110.921 136.286 110.941 136.341 110.963C136.303 110.945 136.257 110.93 136.239 110.921C136.063 110.835 135.893 110.738 135.731 110.629C135.695 110.605 135.659 110.581 135.624 110.555C135.631 110.562 135.637 110.567 135.645 110.575C135.635 110.564 135.619 110.555 135.608 110.544C135.563 110.51 135.555 110.501 135.57 110.511C135.475 110.426 135.363 110.348 135.266 110.279C135.232 110.254 135.198 110.229 135.163 110.206C135.143 110.192 135.143 110.194 135.147 110.198C134.927 110.025 134.724 109.931 134.437 109.902C133.941 109.853 133.606 110.342 133.567 110.771C133.538 111.106 133.746 111.397 133.935 111.653C134.107 111.884 134.301 112.065 134.527 112.242C134.996 112.61 135.476 112.879 136.029 113.104C136.498 113.293 137.018 113.368 137.52 113.397C138.146 113.433 138.755 113.264 139.223 112.836C139.43 112.644 139.501 112.321 139.428 112.054Z" fill="#2E344B"/>
<path d="M136.364 110.974C136.356 110.97 136.351 110.965 136.339 110.961C136.347 110.965 136.354 110.969 136.359 110.973C136.361 110.973 136.364 110.974 136.364 110.974Z" fill="#2E344B"/>
<path d="M120.356 114.023C120.294 113.981 120.237 113.934 120.166 113.897C119.504 113.552 118.751 113.659 118.196 114.147C117.897 114.409 117.675 114.803 117.511 115.163C117.151 115.956 116.946 116.817 116.994 117.694C117.053 118.746 117.35 120.019 118.466 120.406C119.539 120.777 120.542 119.889 120.961 118.98C121.323 118.196 121.531 117.332 121.466 116.464C121.403 115.617 121.179 114.454 120.356 114.023Z" fill="#2E344B"/>
<path d="M136.607 115.437C136.545 115.395 136.488 115.348 136.417 115.311C135.755 114.966 135.002 115.073 134.447 115.561C134.149 115.823 133.927 116.217 133.763 116.577C133.403 117.371 133.197 118.231 133.245 119.108C133.304 120.16 133.601 121.433 134.717 121.82C135.789 122.191 136.793 121.303 137.213 120.394C137.574 119.61 137.783 118.746 137.717 117.878C137.655 117.031 137.429 115.867 136.607 115.437Z" fill="#2E344B"/>
<path d="M119.308 114.12C119.256 113.936 119.163 113.775 119.028 113.64C118.955 113.582 118.881 113.526 118.808 113.469C118.639 113.37 118.456 113.321 118.259 113.321C118.109 113.315 117.969 113.347 117.839 113.414C117.704 113.458 117.588 113.533 117.489 113.64C117.383 113.738 117.308 113.855 117.263 113.99C117.195 114.12 117.164 114.259 117.17 114.409C117.184 114.506 117.196 114.602 117.21 114.699C117.261 114.883 117.354 115.043 117.489 115.179C117.563 115.236 117.636 115.292 117.709 115.349C117.878 115.448 118.061 115.497 118.259 115.499C118.408 115.504 118.548 115.473 118.678 115.404C118.813 115.361 118.93 115.285 119.028 115.179C119.135 115.08 119.209 114.963 119.254 114.829C119.322 114.699 119.354 114.56 119.348 114.409C119.333 114.313 119.321 114.216 119.308 114.12Z" fill="#EFF3FF"/>
<path d="M135.761 115.542C135.709 115.358 135.616 115.197 135.481 115.061C135.408 115.005 135.334 114.948 135.261 114.891C135.092 114.792 134.909 114.743 134.712 114.743C134.563 114.737 134.422 114.769 134.292 114.836C134.157 114.88 134.041 114.955 133.942 115.061C133.837 115.16 133.761 115.277 133.717 115.412C133.648 115.542 133.617 115.681 133.623 115.831C133.637 115.928 133.649 116.024 133.663 116.121C133.714 116.305 133.807 116.465 133.942 116.601C134.016 116.658 134.089 116.714 134.162 116.771C134.331 116.87 134.514 116.919 134.712 116.919C134.861 116.925 135.001 116.894 135.131 116.825C135.266 116.781 135.383 116.706 135.481 116.6C135.588 116.501 135.662 116.384 135.706 116.25C135.774 116.119 135.806 115.98 135.8 115.83C135.787 115.735 135.774 115.638 135.761 115.542Z" fill="#EFF3FF"/>
<path d="M129.198 122.005C128.901 121.349 128.418 120.796 128.115 120.139C127.97 119.824 127.837 119.512 127.749 119.174C127.654 118.809 127.689 118.365 127.477 118.048C127.233 117.684 126.767 117.701 126.521 118.048C126.149 118.568 126.419 119.53 126.591 120.091C126.799 120.764 127.149 121.374 127.56 121.942C127.878 122.382 128.301 122.819 127.986 123.369C127.833 123.634 127.6 123.801 127.372 123.996C127.113 124.218 126.913 124.459 126.734 124.749C126.564 125.023 126.781 125.443 127.119 125.419C127.925 125.361 128.539 124.945 128.998 124.283C129.471 123.601 129.538 122.756 129.198 122.005Z" fill="#B44E50"/>
<path d="M129.02 129.227C128.022 128.792 126.868 128.52 125.775 128.611C124.824 128.69 123.274 129.068 123.084 130.186C123.057 130.346 123.175 130.471 123.338 130.439C123.789 130.349 124.166 130.105 124.601 129.964C125.046 129.821 125.509 129.752 125.976 129.761C127.043 129.781 128.06 130.22 129.026 130.634C129.452 130.817 130.391 131.092 130.387 130.312C130.382 129.712 129.466 129.42 129.02 129.227Z" fill="#B44E50"/>
<path d="M117.449 122.635C117.328 123.946 115.694 124.867 113.799 124.692C111.905 124.517 110.467 123.312 110.588 122.001C110.709 120.689 112.343 119.768 114.238 119.943C116.133 120.119 117.57 121.324 117.449 122.635Z" fill="#C85F64"/>
<path d="M141.826 125.103C141.705 126.415 140.071 127.336 138.176 127.161C136.282 126.986 134.844 125.781 134.965 124.47C135.086 123.158 136.72 122.237 138.614 122.412C140.509 122.587 141.946 123.792 141.826 125.103Z" fill="#C85F64"/>
<path d="M116.457 114.147C116.427 114.101 116.398 114.056 116.364 114.012C116.328 113.957 116.281 113.913 116.221 113.881C116.212 113.874 116.204 113.867 116.193 113.862C116.177 113.851 116.16 113.84 116.143 113.83C116.107 113.808 116.072 113.783 116.034 113.765C115.967 113.732 115.883 113.69 115.815 113.67C115.778 113.659 115.74 113.652 115.701 113.645C115.628 113.632 115.549 113.61 115.478 113.609C115.413 113.609 115.342 113.627 115.277 113.639C115.166 113.658 115.066 113.724 115.009 113.821C114.964 113.898 114.954 113.98 114.965 114.065C114.973 114.125 114.995 114.178 115.023 114.232C115.039 114.261 115.054 114.29 115.07 114.318C115.111 114.386 115.16 114.428 115.216 114.478C115.272 114.528 115.331 114.585 115.395 114.624C115.497 114.685 115.608 114.729 115.719 114.769C115.756 114.783 115.792 114.798 115.829 114.808C115.915 114.832 115.986 114.823 116.07 114.817C116.151 114.817 116.226 114.796 116.296 114.756C116.363 114.717 116.416 114.663 116.456 114.596C116.536 114.464 116.543 114.279 116.457 114.147Z" fill="#C85F64"/>
<path d="M117.045 113.03C117.025 112.967 117.004 112.904 116.984 112.84C116.951 112.736 116.9 112.641 116.846 112.545C116.773 112.416 116.647 112.338 116.531 112.25C116.459 112.209 116.381 112.188 116.298 112.188C116.213 112.188 116.136 112.209 116.064 112.25C115.926 112.331 115.831 112.488 115.835 112.65C115.836 112.682 115.838 112.715 115.839 112.746C115.839 112.76 115.839 112.774 115.84 112.788C115.845 112.839 115.852 112.892 115.86 112.944C115.878 112.986 115.896 113.029 115.914 113.072C115.943 113.134 115.971 113.201 116.014 113.257C116.055 113.311 116.096 113.366 116.137 113.419C116.179 113.474 116.218 113.538 116.266 113.584C116.323 113.64 116.371 113.663 116.436 113.694C116.502 113.732 116.574 113.753 116.65 113.753C116.708 113.755 116.763 113.742 116.814 113.716C116.925 113.668 117.039 113.566 117.059 113.44C117.069 113.377 117.087 113.303 117.087 113.243C117.087 113.166 117.067 113.102 117.045 113.03Z" fill="#C85F64"/>
<path d="M138.79 114.478C138.753 114.418 138.703 114.363 138.642 114.327C138.611 114.31 138.568 114.294 138.533 114.283C138.494 114.27 138.451 114.265 138.411 114.266C138.39 114.267 138.31 114.275 138.289 114.281C138.243 114.294 138.195 114.318 138.154 114.343C138.133 114.356 138.11 114.369 138.089 114.38C138.029 114.413 137.979 114.458 137.93 114.505C137.89 114.543 137.851 114.58 137.809 114.616C137.786 114.637 137.761 114.657 137.737 114.678C137.714 114.697 137.695 114.72 137.675 114.743C137.655 114.765 137.634 114.786 137.614 114.808C137.609 114.813 137.604 114.818 137.599 114.823C137.575 114.855 137.55 114.886 137.527 114.918C137.517 114.939 137.508 114.96 137.499 114.982C137.484 115.015 137.475 115.038 137.467 115.07C137.447 115.146 137.447 115.223 137.467 115.298C137.481 115.354 137.507 115.402 137.544 115.444C137.574 115.491 137.614 115.527 137.664 115.554C137.731 115.593 137.803 115.612 137.88 115.612C137.98 115.62 138.071 115.594 138.16 115.55C138.186 115.537 138.212 115.522 138.238 115.508C138.319 115.463 138.392 115.408 138.461 115.346C138.569 115.25 138.689 115.145 138.753 115.015C138.764 114.992 138.775 114.969 138.787 114.946C138.796 114.924 138.805 114.904 138.814 114.883C138.821 114.865 138.828 114.847 138.836 114.829C138.855 114.77 138.857 114.71 138.844 114.651C138.836 114.582 138.833 114.545 138.79 114.478Z" fill="#C85F64"/>
<path d="M139.718 115.884C139.677 115.812 139.61 115.744 139.539 115.702C139.446 115.647 139.34 115.632 139.233 115.645C139.204 115.649 139.176 115.653 139.147 115.658C139.126 115.661 139.106 115.665 139.086 115.669C139.005 115.684 138.93 115.711 138.857 115.752C138.783 115.793 138.711 115.838 138.643 115.889C138.566 115.945 138.485 115.997 138.434 116.082C138.407 116.128 138.374 116.19 138.364 116.24C138.34 116.359 138.378 116.498 138.493 116.558C138.566 116.597 138.68 116.631 138.762 116.629C138.817 116.627 138.873 116.619 138.928 116.618C138.983 116.617 139.037 116.617 139.091 116.619C139.164 116.622 139.236 116.604 139.309 116.592C139.37 116.592 139.427 116.582 139.48 116.554C139.558 116.52 139.619 116.474 139.672 116.406C139.718 116.346 139.708 116.362 139.737 116.293C139.795 116.161 139.79 116.012 139.718 115.884Z" fill="#C85F64"/>
<path d="M139.282 116.597C139.288 116.596 139.292 116.596 139.298 116.595C139.3 116.595 139.301 116.594 139.304 116.594C139.287 116.596 139.269 116.598 139.252 116.6C139.262 116.599 139.272 116.598 139.282 116.597Z" fill="#C85F64"/>
<path d="M139.379 116.586C139.357 116.589 139.334 116.59 139.313 116.594C139.31 116.594 139.307 116.596 139.304 116.596C139.329 116.593 139.353 116.589 139.379 116.586Z" fill="#C85F64"/>
<path d="M136.059 218.179C134.877 218.672 133.81 219.454 132.697 220.084C131.537 220.741 130.334 221.333 129.109 221.857C126.67 222.9 124.093 223.638 121.476 224.064C116.182 224.927 110.694 224.403 105.628 222.658C102.733 221.661 100.146 220.206 97.4866 218.717C97.2566 218.588 96.984 218.909 97.196 219.094C99.2099 220.85 101.698 222.127 104.159 223.137C106.736 224.195 109.459 224.905 112.217 225.285C117.691 226.038 123.327 225.373 128.498 223.433C129.946 222.89 131.356 222.252 132.711 221.506C134.005 220.791 135.484 219.991 136.449 218.846C136.672 218.579 136.467 218.01 136.059 218.179Z" fill="#6779B7"/>
<path d="M135.81 212.853C134.767 213.572 133.747 214.342 132.651 214.98C132.107 215.298 131.539 215.57 130.966 215.829C130.684 215.956 130.396 216.065 130.11 216.179C129.967 216.237 129.82 216.29 129.68 216.354C129.531 216.423 129.471 216.531 129.348 216.612C129.222 216.697 129.278 216.869 129.422 216.884C129.578 216.9 129.668 216.966 129.84 216.948C129.993 216.932 130.149 216.901 130.298 216.868C130.613 216.799 130.925 216.702 131.233 216.602C131.884 216.39 132.515 216.104 133.121 215.785C133.714 215.471 134.286 215.112 134.808 214.691C135.348 214.253 135.779 213.787 136.18 213.222C136.334 213.004 136.028 212.703 135.81 212.853Z" fill="#6779B7"/>
<path d="M422.853 446.056H203.668C196.744 446.056 191.432 439.911 192.431 433.059L217.576 260.862C218.186 256.681 221.773 253.58 225.999 253.58H366.701L379.525 237.577C382.201 234.238 386.248 232.295 390.526 232.295L455.665 232.289C460.856 232.288 464.839 236.895 464.088 242.032L435.95 434.733C435.001 441.234 429.424 446.056 422.853 446.056Z" fill="#D3723F"/>
<path d="M200.417 446.052H423.897C429.419 446.052 433.692 441.212 433.006 435.734L413.382 278.788C412.8 274.138 408.847 270.648 404.161 270.648H179.127C173.538 270.648 169.213 275.548 169.906 281.094L189.307 436.244C190.008 441.847 194.77 446.052 200.417 446.052Z" fill="#EBAB6F"/>
<path d="M274.15 344.221C274.114 344.185 274.079 344.149 274.057 344.13C273.626 343.765 273.184 343.413 272.744 343.06C271.961 342.43 271.178 341.801 270.395 341.17C269.574 340.509 268.752 339.85 267.932 339.19C268.187 338.857 268.439 338.534 268.76 338.128C269.538 337.145 270.328 336.176 271.069 335.165C271.788 334.183 272.497 333.339 272.828 332.144C273.292 330.472 271.686 328.811 269.992 329.308C267.783 329.957 265.884 332.042 264.277 333.643C263.798 334.121 263.334 334.61 262.863 335.096C261.95 334.364 261.027 333.647 260.071 332.976C258.351 331.771 256.25 329.427 253.988 329.631C252.544 329.761 251.129 330.802 251.206 332.414C251.33 335.084 253.983 336.863 255.674 338.674C256.372 339.421 257.107 340.136 257.854 340.839C256.995 341.912 256.156 343 255.375 344.122C253.961 346.155 252.029 348.492 251.953 351.054C251.879 353.536 254.61 354.748 256.622 353.735C257.851 353.117 258.664 351.907 259.438 350.81C260.085 349.893 260.726 348.974 261.389 348.07C261.96 347.292 262.518 346.505 263.078 345.719C263.918 346.507 264.757 347.296 265.598 348.085C266.417 348.854 267.227 349.636 268.069 350.381C268.644 350.888 269.224 351.456 269.875 351.858C271.073 352.596 272.387 352.608 273.725 352.367C275.603 352.028 276.846 349.98 276.893 348.206C276.894 348.171 276.895 348.137 276.895 348.104C276.945 346.284 275.731 344.838 274.15 344.221Z" fill="#2E344B"/>
<path d="M334.014 341.495C333.979 341.459 333.944 341.424 333.921 341.405C333.49 341.04 333.048 340.688 332.609 340.333C331.826 339.704 331.042 339.074 330.259 338.444C329.438 337.783 328.617 337.123 327.797 336.464C328.051 336.13 328.304 335.807 328.625 335.401C329.402 334.418 330.192 333.449 330.934 332.438C331.653 331.456 332.362 330.613 332.693 329.418C333.156 327.745 331.551 326.085 329.857 326.582C327.648 327.23 325.748 329.316 324.142 330.917C323.662 331.395 323.198 331.884 322.728 332.37C321.815 331.637 320.891 330.92 319.935 330.249C318.216 329.044 316.114 326.701 313.852 326.905C312.408 327.035 310.995 328.075 311.07 329.687C311.195 332.357 313.848 334.137 315.539 335.947C316.236 336.695 316.971 337.409 317.719 338.113C316.859 339.185 316.02 340.274 315.239 341.396C313.825 343.428 311.893 345.765 311.817 348.328C311.743 350.81 314.474 352.021 316.487 351.007C317.715 350.389 318.529 349.179 319.303 348.082C319.949 347.166 320.591 346.247 321.254 345.342C321.825 344.564 322.382 343.777 322.942 342.991C323.783 343.78 324.622 344.568 325.462 345.357C326.281 346.127 327.091 346.909 327.934 347.654C328.508 348.162 329.088 348.728 329.74 349.13C330.937 349.868 332.252 349.881 333.589 349.639C335.467 349.301 336.71 347.252 336.758 345.477C336.759 345.443 336.76 345.409 336.761 345.375C336.809 343.559 335.595 342.114 334.014 341.495Z" fill="#2E344B"/>
<path d="M311.051 362.781C308.89 361.754 306.636 360.918 304.345 360.235C300.038 358.95 295.403 358.15 290.903 358.576C287.063 358.94 283.189 360.053 280.035 362.348C278.385 363.549 276.957 364.901 275.724 366.527C274.657 367.937 273.654 369.884 273.872 371.689C274.025 372.959 275.34 374.108 276.625 373.269C277.877 372.451 278.835 371.262 279.906 370.22C280.903 369.251 282.018 368.514 283.268 367.878C284.541 367.229 285.565 366.827 287.092 366.437C288.922 365.969 289.645 365.865 291.378 365.828C295.038 365.75 298.475 366.566 302.008 367.811C303.817 368.448 305.589 369.191 307.367 369.911C307.414 369.93 307.439 369.941 307.472 369.954C307.957 370.162 308.246 370.286 308.343 370.325C308.375 370.34 308.396 370.35 308.433 370.367C308.797 370.547 309.172 370.701 309.557 370.825C310.447 371.135 311.269 371.312 312.221 371.379C313.878 371.494 315.157 369.912 315.214 368.385C315.312 365.761 313.249 363.827 311.051 362.781Z" fill="#2E344B"/>
<path d="M412.731 255.52C412.619 255.119 412.415 254.77 412.121 254.473C411.824 254.179 411.476 253.976 411.074 253.863C410.326 253.657 409.28 253.834 408.765 254.473C408.615 254.66 408.468 254.849 408.324 255.041C408.242 255.235 408.16 255.428 408.078 255.622C408.032 255.73 407.973 255.841 407.939 255.953C407.819 256.345 407.825 256.804 407.78 257.215C407.728 257.691 407.671 258.156 407.686 258.635C407.704 259.258 407.69 259.891 407.807 260.507C407.857 260.773 407.913 261.024 408.019 261.274C408.166 261.622 408.398 261.896 408.648 262.173C409.085 262.657 409.912 262.733 410.457 262.407C410.705 262.257 410.955 262.101 411.164 261.898C411.396 261.673 411.59 261.317 411.736 261.021C412.001 260.484 412.165 259.893 412.356 259.327C412.503 258.889 412.59 258.453 412.676 258C412.829 257.203 413.047 256.305 412.731 255.52Z" fill="#EFF3FF"/>
<path d="M427.264 256.096C427.037 255.355 426.397 254.538 425.576 254.408C425.176 254.345 424.871 254.299 424.483 254.35C423.884 254.431 423.487 254.673 423.013 255.054C422.819 255.21 422.62 255.367 422.445 255.544C422.077 255.914 421.77 256.368 421.45 256.779C420.699 257.745 420 258.731 419.334 259.758C419.064 260.175 418.796 260.595 418.534 261.018C418.193 261.571 417.971 262.207 417.72 262.804C417.524 263.272 417.312 263.722 417.231 264.224C417.148 264.741 417.083 265.247 417.363 265.723C417.639 266.191 418.054 266.428 418.591 266.472C419.749 266.566 420.718 265.342 421.481 264.628C422.187 263.969 422.781 263.218 423.418 262.491C424.039 261.784 424.669 261.089 425.286 260.38C426.315 259.203 427.795 257.834 427.264 256.096Z" fill="#EFF3FF"/>
<path d="M429.271 272.117C428.854 271.749 428.456 271.432 427.91 271.267C427.484 271.138 427.043 271.079 426.598 271.078C425.911 271.077 425.235 271.172 424.566 271.323C424.063 271.436 423.566 271.579 423.081 271.75C422.713 271.88 422.329 272.002 422.009 272.228C421.67 272.466 421.402 272.712 421.132 273.016C420.755 273.439 420.575 273.975 420.73 274.537C420.865 275.027 421.3 275.533 421.822 275.629C422.006 275.662 422.188 275.705 422.372 275.734C422.606 275.771 422.847 275.809 423.086 275.819C423.176 275.823 423.263 275.812 423.352 275.803C423.335 275.805 423.318 275.807 423.301 275.809C423.351 275.803 423.403 275.801 423.453 275.796C423.456 275.796 423.46 275.796 423.463 275.795C424.208 275.705 424.959 275.67 425.709 275.707C426.11 275.727 426.529 275.73 426.93 275.708C427.263 275.69 427.632 275.631 427.962 275.551C428.296 275.47 428.593 275.274 428.887 275.105C429.893 274.52 430.197 272.933 429.271 272.117Z" fill="#EFF3FF"/>
<path d="M316.374 75.4453L289.345 96.5453L279.057 207.243H380.076L392.325 75.4453H316.374Z" fill="#EFF3FF"/>
<path d="M314.413 96.5453L316.374 75.4453L289.345 96.5453H314.413Z" fill="#6779B7"/>
<path d="M349.104 129.781C350.497 128.118 352.124 126.42 352.664 124.255C353.11 122.469 351.553 121.109 349.846 121.436C347.842 121.822 346.187 123.228 344.613 124.434C342.887 125.757 341.242 127.173 339.604 128.602C337.304 130.61 335.094 132.752 332.909 134.903C331.793 133.297 330.684 131.688 329.569 130.083C328.452 128.474 327.349 126.861 326.161 125.303C324.909 123.659 323.644 121.779 321.844 120.697C320.271 119.752 317.633 120.936 317.87 122.977C318.331 126.959 321.178 130.782 323.193 134.157C324.489 136.329 325.832 138.468 327.201 140.592C325.59 142.223 323.987 143.863 322.388 145.506C319.502 148.474 315.586 151.592 314.186 155.581C313.358 157.939 316.073 160.964 318.535 159.931C322.502 158.266 325.325 154.414 328.262 151.379C329.484 150.117 330.723 148.872 331.955 147.621C333.459 149.748 334.988 151.859 336.57 153.928C337.833 155.582 339.111 157.226 340.415 158.848C341.065 159.657 341.687 160.538 342.447 161.247C343.84 162.547 345.234 162.816 347.076 162.507C348.396 162.285 349.339 161.025 349.733 159.85C350.661 157.082 348.569 155.067 346.919 153.149C345.677 151.706 344.455 150.247 343.252 148.772C341.369 146.461 339.557 144.095 337.783 141.7C340.261 139.206 342.771 136.729 345.157 134.155C346.494 132.716 347.844 131.287 349.104 129.781Z" fill="#EF877B"/>
<path d="M308.483 62.8203L281.452 83.9203L271.164 194.618H372.183L384.432 62.8203H308.483Z" fill="#EFF3FF"/>
<path d="M306.522 83.9203L308.483 62.8203L281.452 83.9203H306.522Z" fill="#8EADD5"/>
<path d="M341.213 117.156C342.605 115.493 344.233 113.795 344.774 111.63C345.219 109.844 343.663 108.483 341.955 108.811C339.952 109.196 338.297 110.603 336.723 111.809C334.996 113.132 333.351 114.548 331.713 115.977C329.413 117.985 327.203 120.127 325.019 122.278C323.903 120.672 322.794 119.063 321.679 117.458C320.562 115.849 319.459 114.236 318.271 112.678C317.018 111.034 315.754 109.154 313.953 108.072C312.38 107.127 309.743 108.311 309.98 110.352C310.441 114.334 313.288 118.157 315.303 121.532C316.599 123.704 317.942 125.843 319.311 127.967C317.699 129.598 316.096 131.238 314.498 132.88C311.612 135.848 307.695 138.967 306.295 142.955C305.467 145.313 308.182 148.338 310.645 147.305C314.612 145.64 317.435 141.788 320.372 138.753C321.594 137.491 322.832 136.246 324.064 134.994C325.569 137.121 327.098 139.231 328.68 141.302C329.943 142.956 331.221 144.6 332.525 146.222C333.174 147.031 333.797 147.912 334.556 148.621C335.95 149.921 337.343 150.19 339.185 149.881C340.506 149.658 341.448 148.399 341.842 147.224C342.771 144.456 340.679 142.441 339.028 140.523C337.786 139.08 336.565 137.621 335.362 136.146C333.478 133.835 331.666 131.469 329.893 129.073C332.371 126.579 334.881 124.103 337.267 121.528C338.602 120.091 339.953 118.662 341.213 117.156Z" fill="#C85F64"/>
<path d="M280.231 194.616L374.551 198.167L383.259 75.4453L372.183 194.616H280.231Z" fill="#2E344B"/>
<path d="M288.063 61.6762C287.599 61.1522 287.154 60.6171 286.644 60.138C286.147 59.6724 285.666 59.1945 285.132 58.7715C284.85 58.5483 284.57 58.3216 284.287 58.0984C284.087 57.9402 283.914 57.7999 283.678 57.7001C283.628 57.6788 283.577 57.6574 283.527 57.6361C283.379 57.5733 283.23 57.5105 283.081 57.4465C282.549 57.2188 282.023 57.1784 281.535 57.5554C281.123 57.874 280.848 58.4978 281.036 59.0183C281.176 59.4054 281.295 59.8957 281.52 60.2334C281.701 60.5083 281.915 60.7674 282.112 61.0322C282.621 61.7132 283.171 62.3314 283.752 62.9484C284.234 63.46 284.769 63.8987 285.31 64.3475C285.66 64.6381 286.004 64.9634 286.399 65.19C286.88 65.4649 287.401 65.7757 287.973 65.7039C288.358 65.6556 288.73 65.5782 289.007 65.2753C289.281 64.9769 289.405 64.6459 289.436 64.2409C289.511 63.2603 288.666 62.3594 288.063 61.6762Z" fill="#EFF3FF"/>
<path d="M285.862 71.0798C285.632 70.723 285.332 70.4942 284.983 70.2877C284.548 69.9074 283.87 69.7616 283.331 69.7144C282.909 69.6774 282.477 69.6595 282.054 69.6651C281.528 69.6718 280.98 69.793 280.462 69.8917C279.862 70.0061 279.319 70.1621 278.902 70.6512C278.331 71.3244 278.391 72.2892 279.177 72.7795C279.508 72.986 279.867 73.1217 280.263 73.1296C280.474 73.1329 280.686 73.1127 280.897 73.1049C281.301 73.0903 281.712 73.1172 282.112 73.0656C282.965 72.9557 284.165 73.0129 284.893 72.4553C284.9 72.4519 284.901 72.4519 284.909 72.4486C285.077 72.3779 285.229 72.3184 285.372 72.2062C285.507 72.1019 285.647 71.9919 285.762 71.8663C285.947 71.6576 286.021 71.3278 285.862 71.0798Z" fill="#EFF3FF"/>
<path d="M296.41 56.3045C296.408 56.0206 296.417 55.7312 296.402 55.4473C296.379 54.9683 296.226 54.6497 295.966 54.2738C295.638 53.8004 295.085 53.6309 294.559 53.9047C294.185 54.0988 293.86 54.3232 293.648 54.7013C293.457 55.0423 293.32 55.4395 293.178 55.8007C292.94 56.3987 292.902 57.1022 292.816 57.7372C292.727 58.4036 292.671 59.0352 292.714 59.7073C292.764 60.4713 292.772 61.324 293.216 61.9814C293.769 62.8004 294.936 62.8509 295.479 61.9814C295.728 61.582 295.834 61.1063 295.892 60.6474C295.907 60.5252 295.919 60.4006 295.937 60.2783C295.945 60.2256 295.953 60.1718 295.958 60.146C296.066 59.4403 296.147 58.7413 296.215 58.0322C296.241 57.7563 296.266 57.4758 296.308 57.2009C296.316 57.1504 296.324 57.1033 296.327 57.0853C296.366 56.8251 296.412 56.5681 296.41 56.3045Z" fill="#EFF3FF"/>
<path d="M199.624 116.244C220.226 116.244 236.927 101.67 236.927 83.6921C236.927 65.7144 220.226 51.1406 199.624 51.1406C179.022 51.1406 162.321 65.7144 162.321 83.6921C162.321 101.67 179.022 116.244 199.624 116.244Z" fill="#EFF3FF"/>
<path d="M170.545 99.3594C170.545 99.3594 165.309 106.307 159.694 109.721C158.705 110.323 158.982 111.819 160.117 112.046C164.823 112.987 173.622 113.922 182.355 110.466L170.545 99.3594Z" fill="#EFF3FF"/>
<path d="M429.616 50.8669L435.46 52.7619L429.616 54.6568C427.233 55.4298 425.366 57.2967 424.593 59.6796L422.698 65.5237L420.803 59.6796C420.03 57.2967 418.163 55.4298 415.78 54.6568L409.936 52.7619L415.78 50.8669C418.163 50.0939 420.03 48.2271 420.803 45.8441L422.698 40L424.593 45.8441C425.365 48.2259 427.233 50.0939 429.616 50.8669Z" fill="#EFF3FF"/>
<path d="M46.7126 376.258L52.5567 378.152L46.7126 380.047C44.3308 380.82 42.4628 382.687 41.6898 385.07L39.7948 390.914L37.8999 385.07C37.1269 382.687 35.26 380.82 32.8771 380.047L27.033 378.152L32.8771 376.258C35.26 375.485 37.1269 373.618 37.8999 371.235L39.7948 365.391L41.6898 371.235C42.4616 373.618 44.3296 375.486 46.7126 376.258Z" fill="#EFF3FF"/>
<path d="M261.429 223.29L266.223 224.845L261.429 226.4C259.475 227.034 257.943 228.565 257.31 230.521L255.755 235.315L254.2 230.521C253.566 228.566 252.035 227.034 250.08 226.4L245.286 224.845L250.08 223.29C252.035 222.656 253.567 221.124 254.2 219.169L255.755 214.375L257.31 219.169C257.944 221.123 259.475 222.656 261.429 223.29Z" fill="#EFF3FF"/>
<path d="M474.189 389.226L478.983 390.781L474.189 392.336C472.235 392.97 470.702 394.503 470.069 396.456L468.514 401.25L466.959 396.456C466.325 394.501 464.794 392.969 462.84 392.336L458.046 390.781L462.84 389.226C464.794 388.592 466.327 387.061 466.959 385.106L468.514 380.312L470.069 385.106C470.703 387.061 472.235 388.593 474.189 389.226Z" fill="#EFF3FF"/>
<path d="M450.451 67.9429L453.08 68.7956L450.451 69.6482C449.38 69.996 448.539 70.8363 448.191 71.9078L447.339 74.5364L446.486 71.9078C446.138 70.8363 445.298 69.996 444.227 69.6482L441.598 68.7956L444.227 67.9429C445.298 67.5951 446.138 66.7548 446.486 65.6834L447.339 63.0547L448.191 65.6834C448.539 66.7548 449.378 67.5951 450.451 67.9429Z" fill="#EFF3FF"/>
<path d="M100.125 54.9742L102.754 55.8268L100.125 56.6795C99.0539 57.0273 98.2136 57.8676 97.8658 58.939L97.0131 61.5677L96.1604 58.939C95.8126 57.8676 94.9723 57.0273 93.9009 56.6795L91.2722 55.8268L93.9009 54.9742C94.9723 54.6264 95.8126 53.786 96.1604 52.7146L97.0131 50.0859L97.8658 52.7146C98.2136 53.786 99.0539 54.6264 100.125 54.9742Z" fill="#EFF3FF"/>
<path d="M341.078 262.882C340.733 262.215 340.423 261.532 340.151 260.836" stroke="#EFF3FF" stroke-linecap="round" stroke-linejoin="round"/>
<path d="M338.942 256.557C337.403 248.043 340.524 238.639 347.298 233.161C355.291 226.698 366.35 226.027 376.619 225.614C387.181 225.189 397.807 224.732 408.128 222.442C415.057 220.905 421.962 218.458 427.411 213.912C432.861 209.366 436.668 202.425 436.075 195.354C435.482 188.281 429.7 181.586 422.611 181.259C415.521 180.933 408.801 188.401 410.942 195.168C412.177 199.072 415.858 201.897 419.848 202.811C423.839 203.726 428.069 202.942 431.849 201.369C440.002 197.977 446.486 190.8 449.036 182.345C450.48 177.556 450.705 172.472 450.398 167.48C450.03 161.479 448.86 155.39 445.802 150.213C441.775 143.399 434.762 138.734 427.276 136.165C421.193 134.078 414.773 133.248 408.338 132.836" stroke="#EFF3FF" stroke-linecap="round" stroke-linejoin="round" stroke-dasharray="3.96 3.96"/>
<path d="M406.132 132.711C405.383 132.673 404.635 132.64 403.888 132.609" stroke="#EFF3FF" stroke-linecap="round" stroke-linejoin="round"/>
<path d="M252.756 261.416C235.516 266.307 216.087 263.691 201.287 253.587C186.486 243.483 176.864 225.845 177.333 207.93C177.802 190.015 188.773 172.539 205.105 165.163C211.303 162.362 218.626 161.023 224.865 163.732C231.104 166.442 235.335 174.237 232.413 180.379C229.497 186.509 220.588 188.105 214.873 184.442C209.158 180.779 206.69 173.338 207.479 166.596C208.267 159.854 211.804 153.731 215.935 148.345C228.479 131.986 247.392 120.646 267.733 117.289" stroke="#EFF3FF" stroke-miterlimit="10" stroke-linecap="round" stroke-linejoin="round" stroke-dasharray="4 4"/>
<path d="M193.824 82.6202C193.824 81.804 194.09 81.129 194.624 80.5954C195.158 80.0303 195.833 79.7478 196.649 79.7478C197.936 79.7478 199.097 79.5594 200.133 79.1827C201.169 78.7746 201.985 78.1311 202.582 77.2521C203.21 76.3731 203.524 75.2116 203.524 73.7676C203.524 72.7003 203.257 71.7585 202.723 70.9423C202.221 70.1261 201.515 69.4826 200.604 69.0117C199.725 68.5408 198.721 68.3054 197.591 68.3054C196.712 68.3054 195.88 68.4623 195.095 68.7763C194.341 69.0902 193.651 69.514 193.023 70.0476C192.521 70.4871 191.909 70.8167 191.187 71.0365C190.496 71.2248 189.79 71.0522 189.068 70.5185C188.314 69.9535 187.906 69.2785 187.843 68.4937C187.781 67.7089 188.079 66.9869 188.738 66.3277C189.868 65.1662 191.187 64.2715 192.693 63.6437C194.232 62.9844 195.864 62.6548 197.591 62.6548C199.757 62.6548 201.703 63.1571 203.43 64.1616C205.187 65.1348 206.584 66.4532 207.62 68.117C208.656 69.7808 209.174 71.6643 209.174 73.7676C209.174 75.3372 208.939 76.7341 208.468 77.9584C207.997 79.1513 207.322 80.1873 206.443 81.0663C205.596 81.9138 204.591 82.6045 203.43 83.1381C202.299 83.6404 201.059 84.0014 199.71 84.2212C199.647 84.2525 199.584 84.2839 199.521 84.3153C199.49 84.3467 199.474 84.3938 199.474 84.4566V86.1989C199.474 87.015 199.207 87.7057 198.674 88.2707C198.14 88.8044 197.465 89.0712 196.649 89.0712C195.833 89.0712 195.158 88.8044 194.624 88.2707C194.09 87.7057 193.824 87.015 193.824 86.1989V82.6202ZM196.413 97.5C195.503 97.5 194.797 97.2646 194.294 96.7937C193.824 96.2914 193.588 95.5851 193.588 94.6747V93.8742C193.588 92.9638 193.824 92.2732 194.294 91.8023C194.797 91.3001 195.503 91.0489 196.413 91.0489H197.026C197.936 91.0489 198.627 91.3001 199.097 91.8023C199.6 92.2732 199.851 92.9638 199.851 93.8742V94.6747C199.851 95.5851 199.6 96.2914 199.097 96.7937C198.627 97.2646 197.936 97.5 197.026 97.5H196.413Z" fill="#2E344B"/>
</g>
<defs>
<clipPath id="clip0_554_2997">
<rect width="500" height="500" fill="white"/>
</clipPath>
</defs>
</svg>
